<?xml version="1.0" encoding="utf-8"?>
<!-- Generator: Adobe Illustrator 16.0.0, SVG Export Plug-In . SVG Version: 6.00 Build 0)  -->
<!DOCTYPE svg PUBLIC "-//W3C//DTD SVG 1.1//EN" "http://www.w3.org/Graphics/SVG/1.1/DTD/svg11.dtd">
<svg version="1.1" id="Layer_1" xmlns="http://www.w3.org/2000/svg" xmlns:xlink="http://www.w3.org/1999/xlink" x="0px" y="0px"
	 width="170px" height="170px" viewBox="0 0 170 170" enable-background="new 0 0 170 170" xml:space="preserve">
<g>
	<line fill="none" stroke="#333333" stroke-miterlimit="10" x1="12" y1="85.5" x2="158" y2="85.5"/>
	<line fill="none" stroke="#333333" stroke-miterlimit="10" x1="12" y1="85.5" x2="158" y2="85.5"/>
	<line fill="none" stroke="#333333" stroke-miterlimit="10" x1="21.959" y1="121.729" x2="148.042" y2="48.934"/>
	<line fill="none" stroke="#333333" stroke-miterlimit="10" x1="21.959" y1="121.729" x2="148.042" y2="48.934"/>
	<line fill="none" stroke="#333333" stroke-miterlimit="10" x1="48.604" y1="148.372" x2="121.398" y2="22.289"/>
	<line fill="none" stroke="#333333" stroke-miterlimit="10" x1="48.604" y1="148.372" x2="121.398" y2="22.289"/>
	<line fill="none" stroke="#333333" stroke-miterlimit="10" x1="85.5" y1="158" x2="85.5" y2="12"/>
	<line fill="none" stroke="#333333" stroke-miterlimit="10" x1="85.5" y1="158" x2="85.5" y2="12"/>
	<line fill="none" stroke="#333333" stroke-miterlimit="10" x1="121.519" y1="147.921" x2="48.725" y2="21.837"/>
	<line fill="none" stroke="#333333" stroke-miterlimit="10" x1="121.519" y1="147.921" x2="48.725" y2="21.837"/>
	<line fill="none" stroke="#333333" stroke-miterlimit="10" x1="147.921" y1="121.275" x2="21.839" y2="48.481"/>
</g>
<g>
	<line fill="none" stroke="#808080" stroke-miterlimit="10" x1="14.772" y1="104.16" x2="155.399" y2="66.479"/>
	<line fill="none" stroke="#808080" stroke-miterlimit="10" x1="14.772" y1="104.16" x2="155.399" y2="66.479"/>
	<line fill="none" stroke="#808080" stroke-miterlimit="10" x1="33.613" y1="136.792" x2="136.559" y2="33.846"/>
	<line fill="none" stroke="#808080" stroke-miterlimit="10" x1="33.613" y1="136.792" x2="136.559" y2="33.846"/>
	<line fill="none" stroke="#808080" stroke-miterlimit="10" x1="66.246" y1="155.632" x2="103.928" y2="15.005"/>
	<line fill="none" stroke="#808080" stroke-miterlimit="10" x1="66.246" y1="155.632" x2="103.928" y2="15.005"/>
	<line fill="none" stroke="#808080" stroke-miterlimit="10" x1="104.16" y1="155.229" x2="66.48" y2="14.601"/>
	<line fill="none" stroke="#808080" stroke-miterlimit="10" x1="104.16" y1="155.229" x2="66.48" y2="14.601"/>
	<line fill="none" stroke="#808080" stroke-miterlimit="10" x1="136.559" y1="136.326" x2="33.613" y2="33.378"/>
	<line fill="none" stroke="#808080" stroke-miterlimit="10" x1="136.559" y1="136.326" x2="33.613" y2="33.378"/>
	<line fill="none" stroke="#808080" stroke-miterlimit="10" x1="155.166" y1="103.754" x2="14.539" y2="66.073"/>
</g>
<g>
	<g>
		<path fill="#EAD1B7" d="M85,10c41.421,0,75,33.578,75,75s-33.579,75-75,75c-41.422,0-75-33.578-75-75S43.578,10,85,10 M85,2
			C39.234,2,2,39.234,2,85c0,45.767,37.234,83,83,83c45.767,0,83-37.233,83-83C168,39.234,130.767,2,85,2L85,2z"/>
	</g>
</g>
<g>
	<path fill="#B3B3B3" d="M85,13.088c39.715,0,71.912,32.196,71.912,71.912c0,39.717-32.197,71.912-71.912,71.912
		c-39.716,0-71.912-32.195-71.912-71.912C13.088,45.284,45.284,13.088,85,13.088 M85,9.088C43.142,9.088,9.088,43.142,9.088,85
		c0,41.858,34.054,75.912,75.912,75.912c41.858,0,75.912-34.054,75.912-75.912C160.912,43.142,126.858,9.088,85,9.088L85,9.088z"/>
</g>
<g>
	<path fill="#333333" d="M85,13.97c39.229,0,71.029,31.801,71.029,71.03c0,39.229-31.801,71.03-71.029,71.03
		S13.971,124.229,13.971,85C13.971,45.771,45.771,13.97,85,13.97 M85,11.97c-40.269,0-73.029,32.761-73.029,73.03
		S44.731,158.03,85,158.03s73.029-32.762,73.029-73.03S125.269,11.97,85,11.97L85,11.97z"/>
</g>
<g>
	<g>
		<path fill="#DCC3A5" d="M85,10c41.421,0,75,33.578,75,75s-33.579,75-75,75c-41.422,0-75-33.578-75-75S43.578,10,85,10 M85,8
			C42.542,8,8,42.542,8,85s34.542,77,77,77s77-34.542,77-77S127.458,8,85,8L85,8z"/>
	</g>
</g>
<g>
	<path fill="#CCCCCC" d="M85.725,97h-1.45l-0.972-1.559l-1.489,1.577l-1.379-0.38l-0.358-2.007l-1.862,0.926l-1.173-0.843
		l0.289-2.048l-2.053,0.291l-0.852-1.172l0.909-1.861l-2.041-0.358l-0.448-1.379l1.713-1.49L73,85.725v-1.45l1.559-0.972
		l-1.576-1.49l0.379-1.379l2.008-0.358l-0.927-1.862l0.843-1.173l2.049,0.29l-0.291-2.053l1.172-0.853l1.861,0.91l0.358-2.042
		l1.379-0.448l1.49,1.714L84.275,73h1.449l0.973,1.559l1.49-1.578l1.379,0.381l0.358,2.007l1.862-0.926l1.173,0.843l-0.289,2.049
		l2.053-0.292l0.853,1.172l-0.91,1.861l2.041,0.358l0.448,1.379l-1.714,1.49L97,84.274v1.45l-1.559,0.973l1.577,1.49l-0.379,1.379
		l-2.008,0.358l0.927,1.862l-0.844,1.173l-2.048-0.289l0.291,2.052l-1.172,0.853l-1.861-0.91l-0.358,2.042l-1.379,0.448l-1.49-1.714
		L85.725,97z"/>
</g>
</svg>
