<?xml version="1.0" encoding="utf-8"?>
<!-- Generator: Adobe Illustrator 16.0.0, SVG Export Plug-In . SVG Version: 6.00 Build 0)  -->
<!DOCTYPE svg PUBLIC "-//W3C//DTD SVG 1.1//EN" "http://www.w3.org/Graphics/SVG/1.1/DTD/svg11.dtd">
<svg version="1.1" id="Layer_1" xmlns="http://www.w3.org/2000/svg" xmlns:xlink="http://www.w3.org/1999/xlink" x="0px" y="0px"
	 width="502px" height="448px" viewBox="0 0 502 448" enable-background="new 0 0 502 448" xml:space="preserve">
<g id="Chain">
	<g>
		<path fill="#B3B3B3" d="M269.259,306.697c-0.235,0.32-0.843,0.39-1.288,0.063l-13.69-10.079c-0.444-0.326-0.559-0.928-0.322-1.248
			l1.786-1.32c0.236-0.32,1.269-0.387,1.713-0.06l12.079,8.893c0.446,0.328,0.668,1.394,0.431,1.714L269.259,306.697z"/>
		<path fill="#CCCCCC" d="M267.062,309.683c-0.362,0.492-1.017,0.627-1.462,0.299l-13.69-10.078
			c-0.445-0.327-0.512-0.991-0.149-1.484l1.971-2.678c0.363-0.492,1.291-0.995,1.734-0.669l13.691,10.078
			c0.444,0.327,0.238,1.361-0.124,1.855L267.062,309.683z"/>
		<circle fill="#B3B3B3" cx="260.533" cy="302.527" r="2.291"/>
		<path fill="#E6E6E6" d="M221.964,307.282c-1.879-1.522-7.489-1.749-7.394,4.773c0.064,4.354,6.056,5.043,7.435,3.803
			c1.925-1.736,0.714-3.399,9.264-4.654c10.984-1.613,21.801-5.344,24.468-5.063c2.668,0.279,8.634-1.097,6.56-4.645
			c-2.074-3.545-4.165,0.63-7.153,1.074C252.157,303.016,226,310.553,221.964,307.282z"/>
	</g>
	<path fill="none" stroke="#999999" stroke-width="2" stroke-miterlimit="10" d="M198.116,308.32c0,0-4.338,20.752,24.079,27.734
		c53.649,13.183,91.676,52.318,104.993,29.602c10.628-18.128-20.438-16.691-95.4-71.872
		C212.22,279.382,196.818,300.749,198.116,308.32z"/>
</g>
<g id="FrontWheel">
	<g>
		<g>
			<path fill="#EAD1B7" d="M149.506,143.815c33.358,24.555,40.495,71.503,15.94,104.861c-24.555,33.358-71.503,40.494-104.862,15.94
				c-33.358-24.555-40.495-71.503-15.94-104.862C69.2,126.396,116.148,119.26,149.506,143.815 M154.249,137.372
				c-36.858-27.13-88.915-19.218-116.046,17.641c-27.131,36.858-19.218,88.916,17.64,116.046s88.915,19.219,116.047-17.641
				C199.021,216.561,191.106,164.503,154.249,137.372L154.249,137.372z"/>
		</g>
	</g>
	<g>
		<path fill="#B3B3B3" d="M147.675,146.302c31.985,23.543,38.828,68.56,15.284,100.544c-23.544,31.985-68.559,38.828-100.544,15.284
			c-31.984-23.543-38.828-68.558-15.283-100.544C70.675,129.601,115.69,122.758,147.675,146.302 M150.047,143.081
			c-33.709-24.813-81.322-17.575-106.136,16.135c-24.813,33.709-17.577,81.323,16.133,106.135
			c33.71,24.814,81.323,17.576,106.136-16.134C190.994,215.508,183.756,167.893,150.047,143.081L150.047,143.081z"/>
	</g>
	<g>
		<path fill="#333333" d="M147.152,147.013c31.593,23.255,38.352,67.718,15.097,99.31c-23.255,31.594-67.718,38.354-99.311,15.097
			c-31.592-23.254-38.35-67.717-15.095-99.31C71.098,130.517,115.56,123.758,147.152,147.013 M148.337,145.402
			c-32.429-23.872-78.233-16.909-102.105,15.521c-23.872,32.432-16.91,78.234,15.521,102.107
			c32.431,23.871,78.236,16.906,102.107-15.522C187.73,215.079,180.768,169.274,148.337,145.402L148.337,145.402z"/>
	</g>
	<g>
		<g>
			<path fill="#DCC3A5" d="M149.506,143.815c33.358,24.555,40.495,71.503,15.94,104.861c-24.555,33.358-71.503,40.494-104.862,15.94
				c-33.358-24.555-40.495-71.503-15.94-104.862C69.2,126.396,116.148,119.26,149.506,143.815 M150.692,142.205
				c-34.193-25.17-82.488-17.828-107.658,16.365c-25.169,34.193-17.828,82.488,16.365,107.658
				c34.193,25.169,82.488,17.827,107.658-16.365C192.227,215.669,184.885,167.374,150.692,142.205L150.692,142.205z"/>
		</g>
	</g>
	<g>
		<line fill="none" stroke="#333333" stroke-miterlimit="10" x1="45.959" y1="161.344" x2="163.539" y2="247.894"/>
		<line fill="none" stroke="#333333" stroke-miterlimit="10" x1="45.959" y1="161.344" x2="163.539" y2="247.894"/>
		<line fill="none" stroke="#333333" stroke-miterlimit="10" x1="32.503" y1="196.424" x2="177.196" y2="212.541"/>
		<line fill="none" stroke="#333333" stroke-miterlimit="10" x1="32.503" y1="196.424" x2="177.196" y2="212.541"/>
		<line fill="none" stroke="#333333" stroke-miterlimit="10" x1="38.167" y1="233.677" x2="171.534" y2="175.29"/>
		<line fill="none" stroke="#333333" stroke-miterlimit="10" x1="38.167" y1="233.677" x2="171.534" y2="175.29"/>
		<line fill="none" stroke="#333333" stroke-miterlimit="10" x1="62.173" y1="263.302" x2="148.723" y2="145.722"/>
		<line fill="none" stroke="#333333" stroke-miterlimit="10" x1="62.173" y1="263.302" x2="148.723" y2="145.722"/>
		<line fill="none" stroke="#333333" stroke-miterlimit="10" x1="97.156" y1="276.538" x2="113.275" y2="131.844"/>
		<line fill="none" stroke="#333333" stroke-miterlimit="10" x1="97.156" y1="276.538" x2="113.275" y2="131.844"/>
		<line fill="none" stroke="#333333" stroke-miterlimit="10" x1="134.214" y1="270.729" x2="75.828" y2="137.363"/>
	</g>
	<g>
		<line fill="none" stroke="#808080" stroke-miterlimit="10" x1="37.129" y1="178.015" x2="172.72" y2="231.032"/>
		<line fill="none" stroke="#808080" stroke-miterlimit="10" x1="37.129" y1="178.015" x2="172.72" y2="231.032"/>
		<line fill="none" stroke="#808080" stroke-miterlimit="10" x1="32.959" y1="215.464" x2="176.893" y2="193.583"/>
		<line fill="none" stroke="#808080" stroke-miterlimit="10" x1="32.959" y1="215.464" x2="176.893" y2="193.583"/>
		<line fill="none" stroke="#808080" stroke-miterlimit="10" x1="48.072" y1="249.982" x2="161.782" y2="159.066"/>
		<line fill="none" stroke="#808080" stroke-miterlimit="10" x1="48.072" y1="249.982" x2="161.782" y2="159.066"/>
		<line fill="none" stroke="#808080" stroke-miterlimit="10" x1="78.844" y1="272.133" x2="131.863" y2="136.542"/>
		<line fill="none" stroke="#808080" stroke-miterlimit="10" x1="78.844" y1="272.133" x2="131.863" y2="136.542"/>
		<line fill="none" stroke="#808080" stroke-miterlimit="10" x1="116.142" y1="276.116" x2="94.263" y2="132.18"/>
		<line fill="none" stroke="#808080" stroke-miterlimit="10" x1="116.142" y1="276.116" x2="94.263" y2="132.18"/>
		<line fill="none" stroke="#808080" stroke-miterlimit="10" x1="150.436" y1="260.914" x2="59.52" y2="147.203"/>
	</g>
</g>
<g id="BackLeg">
	<g>
		<path fill="#4D4D4D" d="M293.445,273.881c0,0,5.168,21.993-1.837,21.547c-7.009-0.449-56.93-5.663-57.834-9.937
			c-0.905-4.276-3.669-16.92,6.634-16.555c10.303,0.363,26.426,3.367,29.349,0.306C272.023,266.871,292.869,271.541,293.445,273.881
			z"/>
		<path fill="#8C6239" d="M295.155,294.853c-2.75,6.461-60.356-1.834-61.262-6.109c-0.138-0.646-2.352-5.032-0.05-4.275
			c8.841,2.907,23.409,6.32,37.539,7.492c10.252,0.851,23.757-2.293,24.019-0.348C295.709,293.929,295.559,293.898,295.155,294.853z
			"/>
	</g>
	<path fill="#1E71AF" d="M396.709,178.43c0,0-7.951,32.276-20.071,32.436s-63.323-22.639-79.556-9.021s-3.494,51.338-3.147,66.599
		c0.248,10.929-0.431,9.229-12.747,8.414c-14.099-0.933-24.304-1.723-26.045-21.657c-2.05-23.501-6.461-42.102-1.595-77.386
		c3.78-27.393,93.825-5.071,100.61-10.424C361.237,161.806,399.916,168.07,396.709,178.43z"/>
</g>
<g id="BackWheel">
	<g>
		<line fill="none" stroke="#333333" stroke-miterlimit="10" x1="257.765" y1="317.252" x2="375.345" y2="403.802"/>
		<line fill="none" stroke="#333333" stroke-miterlimit="10" x1="257.765" y1="317.252" x2="375.345" y2="403.802"/>
		<line fill="none" stroke="#333333" stroke-miterlimit="10" x1="244.308" y1="352.332" x2="389.002" y2="368.449"/>
		<line fill="none" stroke="#333333" stroke-miterlimit="10" x1="244.308" y1="352.332" x2="389.002" y2="368.449"/>
		<line fill="none" stroke="#333333" stroke-miterlimit="10" x1="249.973" y1="389.585" x2="383.34" y2="331.198"/>
		<line fill="none" stroke="#333333" stroke-miterlimit="10" x1="249.973" y1="389.585" x2="383.34" y2="331.198"/>
		<line fill="none" stroke="#333333" stroke-miterlimit="10" x1="273.979" y1="419.21" x2="360.528" y2="301.631"/>
		<line fill="none" stroke="#333333" stroke-miterlimit="10" x1="273.979" y1="419.21" x2="360.528" y2="301.631"/>
		<line fill="none" stroke="#333333" stroke-miterlimit="10" x1="308.961" y1="432.446" x2="325.08" y2="287.752"/>
		<line fill="none" stroke="#333333" stroke-miterlimit="10" x1="308.961" y1="432.446" x2="325.08" y2="287.752"/>
		<line fill="none" stroke="#333333" stroke-miterlimit="10" x1="346.02" y1="426.639" x2="287.634" y2="293.271"/>
	</g>
	<g>
		<line fill="none" stroke="#808080" stroke-miterlimit="10" x1="248.936" y1="333.923" x2="384.526" y2="386.941"/>
		<line fill="none" stroke="#808080" stroke-miterlimit="10" x1="248.936" y1="333.923" x2="384.526" y2="386.941"/>
		<line fill="none" stroke="#808080" stroke-miterlimit="10" x1="244.765" y1="371.372" x2="388.698" y2="349.491"/>
		<line fill="none" stroke="#808080" stroke-miterlimit="10" x1="244.765" y1="371.372" x2="388.698" y2="349.491"/>
		<line fill="none" stroke="#808080" stroke-miterlimit="10" x1="259.877" y1="405.89" x2="373.588" y2="314.975"/>
		<line fill="none" stroke="#808080" stroke-miterlimit="10" x1="259.877" y1="405.89" x2="373.588" y2="314.975"/>
		<line fill="none" stroke="#808080" stroke-miterlimit="10" x1="290.649" y1="428.041" x2="343.669" y2="292.451"/>
		<line fill="none" stroke="#808080" stroke-miterlimit="10" x1="290.649" y1="428.041" x2="343.669" y2="292.451"/>
		<line fill="none" stroke="#808080" stroke-miterlimit="10" x1="327.947" y1="432.024" x2="306.069" y2="288.089"/>
		<line fill="none" stroke="#808080" stroke-miterlimit="10" x1="327.947" y1="432.024" x2="306.069" y2="288.089"/>
		<line fill="none" stroke="#808080" stroke-miterlimit="10" x1="362.242" y1="416.822" x2="271.326" y2="303.111"/>
	</g>
	<g>
		<g>
			<path fill="#EAD1B7" d="M361.312,299.724c33.358,24.555,40.495,71.503,15.94,104.861c-24.556,33.359-71.504,40.494-104.861,15.94
				c-33.359-24.556-40.496-71.503-15.94-104.861C281.005,282.305,327.953,275.168,361.312,299.724 M366.054,293.281
				c-36.858-27.131-88.914-19.219-116.046,17.641c-27.133,36.858-19.218,88.915,17.64,116.046
				c36.858,27.131,88.916,19.219,116.047-17.641C410.826,372.469,402.912,320.412,366.054,293.281L366.054,293.281z"/>
		</g>
	</g>
	<g>
		<path fill="#B3B3B3" d="M359.481,302.21c31.983,23.544,38.827,68.56,15.284,100.545c-23.545,31.984-68.561,38.826-100.545,15.283
			c-31.985-23.544-38.828-68.559-15.283-100.544C282.481,285.51,327.496,278.666,359.481,302.21 M361.853,298.988
			c-33.71-24.813-81.323-17.575-106.138,16.135c-24.813,33.709-17.576,81.323,16.135,106.137s81.323,17.575,106.137-16.134
			C402.8,371.416,395.563,323.803,361.853,298.988L361.853,298.988z"/>
	</g>
	<g>
		<path fill="#333333" d="M358.958,302.921c31.593,23.256,38.352,67.718,15.097,99.31c-23.256,31.594-67.72,38.352-99.312,15.098
			c-31.591-23.255-38.351-67.719-15.096-99.311C282.902,286.425,327.366,279.666,358.958,302.921 M360.144,301.311
			c-32.431-23.871-78.234-16.909-102.106,15.521c-23.872,32.432-16.908,78.236,15.521,102.107
			c32.43,23.87,78.236,16.906,102.107-15.522C399.536,370.987,392.573,325.182,360.144,301.311L360.144,301.311z"/>
	</g>
	<g>
		<g>
			<path fill="#DCC3A5" d="M361.312,299.724c33.358,24.555,40.495,71.503,15.94,104.861c-24.556,33.359-71.504,40.494-104.861,15.94
				c-33.359-24.556-40.496-71.503-15.94-104.861C281.005,282.305,327.953,275.168,361.312,299.724 M362.497,298.113
				c-34.192-25.17-82.488-17.829-107.657,16.364s-17.828,82.489,16.365,107.658s82.488,17.827,107.657-16.365
				C404.032,371.577,396.69,323.282,362.497,298.113L362.497,298.113z"/>
		</g>
	</g>
	<g>
		<path fill="#CCCCCC" d="M310.321,370.219l-1.168-0.859l0.141-1.832l-2.133,0.387l-0.887-1.123l0.903-1.829l-2.049-0.358
			l-0.445-1.374l1.447-1.478l-1.826-0.982l0.009-1.449l1.835-0.96l-1.432-1.498l0.456-1.376l2.264-0.185l-0.68-1.708l0.859-1.167
			l1.832,0.142l-0.385-2.135l1.123-0.886l1.828,0.902l0.357-2.049l1.374-0.445l1.478,1.448l0.983-1.826l1.449,0.008l0.959,1.837
			l1.499-1.433l1.377,0.457l0.184,2.263l1.708-0.679l1.165,0.858l-0.14,1.832l2.136-0.388l0.885,1.125l-0.902,1.828l2.049,0.359
			l0.445,1.373l-1.448,1.479l1.826,0.981l-0.008,1.45l-1.836,0.959l1.432,1.497l-0.456,1.377l-2.264,0.184l0.679,1.708l-0.858,1.167
			l-1.833-0.141l0.387,2.135l-1.122,0.886l-1.83-0.902l-0.357,2.05l-1.375,0.444l-1.478-1.446l-0.982,1.825l-1.449-0.008
			l-0.959-1.837l-1.499,1.434l-1.377-0.458l-0.183-2.264L310.321,370.219z"/>
	</g>
</g>
<g id="Frame">
	<g>
		<path fill="#CCCCCC" d="M207.286,329.892l1.502,0.943l1.182-0.676l0.113,1.355l1.625,0.706l1.067-0.843l0.312,1.324l1.714,0.455
			l0.93-0.991l0.504,1.261l1.763,0.197l0.771-1.118l0.687,1.17l1.771-0.067l0.595-1.224l0.855,1.059l1.742-0.332l0.407-1.297
			l1.003,0.92l1.673-0.589l0.21-1.344l1.127,0.758l1.567-0.83l0.005-1.359l1.229,0.58l1.424-1.055l-0.196-1.349l1.298,0.391
			l1.245-1.262l-0.264-1.202l1.462,0.278l1.051-1.428l-0.7-1.314l1.314-0.041l0.79-1.596l-0.779-1.141l1.333-0.221l0.58-1.678
			l-0.923-0.999l1.295-0.412l0.327-1.742l-1.059-0.854l1.221-0.601l0.064-1.771l-1.176-0.685l1.117-0.772l-0.201-1.763l-1.265-0.504
			l0.992-0.932l-0.463-1.71l-1.321-0.309l0.839-1.069l-0.71-1.625l-1.355-0.106l0.671-1.183l-0.945-1.499l-1.357,0.095l0.488-1.27
			l-1.155-1.342l-1.327,0.294l0.293-1.327l-1.347-1.155l-1.267,0.491l0.091-1.356l-1.502-0.94l-1.182,0.673l-0.111-1.354
			l-1.627-0.707l-1.066,0.845l-0.313-1.324l-1.711-0.457l-0.931,0.993l-0.503-1.263l-1.764-0.194l-0.772,1.118l-0.688-1.171
			l-1.771,0.066l-0.594,1.225l-0.856-1.059l-1.742,0.332l-0.406,1.297l-1.003-0.92l-1.672,0.589l-0.211,1.344l-1.129-0.758
			l-1.567,0.829l-0.008,1.359l-1.229-0.584l-1.431,1.052l0.188,1.341l-1.319-0.405l-1.285,1.232l0.093,1.077l-1.39-0.224
			l-1.05,1.428l0.63,1.262l-1.109,0.192l-0.767,1.612l0.788,1.146l-1.327,0.227l-0.58,1.676l0.928,1.008l-1.295,0.409l-0.326,1.745
			l1.06,0.852l-1.222,0.601l-0.064,1.771l1.176,0.685l-1.117,0.773l0.201,1.762l1.265,0.504l-0.992,0.931l0.462,1.712l1.322,0.308
			l-0.838,1.07l0.71,1.624l1.355,0.106l-0.672,1.182l0.944,1.5l1.357-0.095l-0.489,1.27l1.158,1.342l1.327-0.296l-0.292,1.329
			l1.346,1.154l1.267-0.49L207.286,329.892z"/>
	</g>
	<polygon fill="#141414" points="223.769,309.456 314.237,358.2 313.059,361.058 220.435,313.986 	"/>
	<path fill="#CCCCCC" d="M327.066,227.952c0,0,7.78-5.876,11.884-8.791c1.335-0.948,3.76-1.709,6.108-0.368
		c1.335,0.761,5.108-1.982,5.879-3.342l4.281,4.198c0,0-2.017,2.098-3.001,3.229c-1.257,1.443-4.84,4.892-8.497,2.587
		c-1.118-0.704-3.092-0.335-3.092-0.335l-10.227,7.566L327.066,227.952z"/>
	<g>
		<path fill="#1A1A1A" d="M193.242,207.97c-0.119,33.9-22.406,55.47-26.163,59.681c-2.216,2.483-7.538,0.481-3.067-6.061
			c4.022-5.886,11.524-12.016,17.667-26.109c5.472-12.555,9.264-44.919-1.777-66.808c-9.206-18.25-27.027-32.104-30.797-34.363
			c-1.602-0.96-2.492-3.78-2.425-4.597c0.245-3.038,3.877,0.135,9.77,4.468C189.041,158.144,193.312,187.987,193.242,207.97z"/>
	</g>
	<g>
		<path fill="#1A1A1A" d="M397.852,394.701c1.853-5.33,14.156-33.802,1.257-65.151c-3.644-8.858-9.089-19.422-18.088-29.084
			c-0.177-0.286-0.38-0.546-0.609-0.764c-4.106-3.872-25.059-26.74-58.942-27.786c-19.974-0.616-51.481,4.975-73.232,32.837
			c-4.501,5.767-7.309,10.222-4.277,10.551c0.815,0.087,3.658-0.723,4.662-2.299c2.36-3.707,15.139-18.483,33.635-27.188
			c18.474-8.691,43.479-8.542,58.64-4.343c4.42,1.532,9.697,3.67,15.098,6.479c9.599,5.279,15.871,10.518,20.733,15.345
			c15.185,16.829,22.476,43.693,22.263,56.093c-0.264,15.372-4.839,23.911-6.295,30.891
			C391.075,398.039,396.758,397.844,397.852,394.701z"/>
	</g>
	<polygon fill="#141414" points="321.637,237.485 317.724,357.041 313.999,357.25 317.602,241.162 	"/>
	<path fill="#CCCCCC" d="M231.423,108.968l14.072,10.824c0,0,4.286,2.612,0.633,5.045c-3.654,2.433-13.78,9.335-13.78,9.335
		l-2.771-3.826l7.604-5.269c0,0,2.698-1.662-0.775-4.218s-6.745-4.964-6.745-4.964s-1.191-1.188-5.348-1.064
		c-3.898,0.114-5.887-5.498-4.034-8.015C223.538,102.388,226.138,105.077,231.423,108.968z"/>
	<polygon fill="#141414" points="223.763,141.176 320.283,232.381 323.316,230.152 327.167,235.169 321.15,239.593 219.634,314.559 
		218.684,307.076 315.5,235.897 218.555,145.004 204.555,154.625 224.896,305.888 219.693,314.993 198.713,158.639 194.854,161.289 
		190.438,156.662 226.188,131.648 229.97,136.72 	"/>
	<path fill="#141414" d="M188.182,165.897l-5.207,3.828l-14.001,9.62l-5.842,4.014c0,0-15.058,8.018-20.314,10.168
		c-8.494,3.477-34.931,11.296-34.931,11.296l-0.696-2.108c0,0,24.725-9.484,33.086-13.748c5.665-2.888,23.282-13.672,23.282-13.672
		l27.049-18.926l3.781,5.073L188.182,165.897z"/>
	<path fill="#B3B3B3" d="M194.54,162.847c-0.457,0.311-1.04,0.25-1.302-0.136l-3.806-5.589c-0.262-0.386-0.106-0.951,0.351-1.26
		l0.827-0.563c0.456-0.31,1.04-0.25,1.302,0.135l3.807,5.589c0.262,0.387,0.104,0.951-0.352,1.261L194.54,162.847z"/>
	<path fill="#B3B3B3" d="M230.465,138.373c-0.523,0.357-1.182,0.305-1.469-0.119l-4.163-6.113c-0.287-0.422-0.097-1.054,0.428-1.409
		l0.947-0.646c0.524-0.357,1.183-0.304,1.469,0.119l4.165,6.113c0.287,0.424,0.096,1.054-0.429,1.411L230.465,138.373z"/>
	<path fill="#B3B3B3" d="M231.701,136.247c-0.523,0.357-1.126,0.387-1.344,0.063l-3.17-4.652c-0.218-0.321,0.029-0.871,0.553-1.227
		l0.948-0.645c0.522-0.357,1.126-0.386,1.344-0.065l3.169,4.652c0.219,0.322-0.029,0.871-0.553,1.228L231.701,136.247z"/>
	<path fill="#B3B3B3" d="M328.115,235.844c-0.508,0.378-1.148,0.383-1.429,0.006l-4.078-5.442c-0.281-0.375-0.098-0.989,0.41-1.367
		l0.918-0.688c0.508-0.38,1.146-0.383,1.427-0.008l4.078,5.443c0.281,0.376,0.098,0.989-0.41,1.368L328.115,235.844z"/>
	<path fill="#B3B3B3" d="M329.466,233.945c-0.509,0.38-1.107,0.438-1.338,0.127l-3.358-4.481c-0.231-0.312-0.008-0.869,0.498-1.249
		l0.918-0.687c0.509-0.381,1.106-0.437,1.339-0.128l3.358,4.483c0.23,0.31,0.008,0.868-0.501,1.248L329.466,233.945z"/>
	<path fill="#E6E6E6" d="M238.147,106.157c0,0-12.588-9.996-12.759-5.232c-0.107,3.01,3.316,8.296,1.21,10.132
		c-2.525,2.202-6.182,0.613-5.858-2.619c0.185-1.837-0.495-4.306-0.579-6.207c-0.329-7.461-0.844-7.605,4.158-9.305
		c4.576-1.554,17.403,9.112,17.403,9.112L238.147,106.157z"/>
	<path fill="#666666" d="M245.017,99.029c0.918,0.449,2.097,2.068,1.435,3.836c-0.422,1.134-3.969,6.667-5.878,7.936
		c-1.73,1.149-6.996-2.157-3.337-7.506C240.896,97.947,243.37,98.221,245.017,99.029z"/>
	<path fill="#808080" d="M248.607,104.599c-0.067-0.962-1.799-2.617-3.015-3.284c-1.217-0.667-3.105,0.738-4.747,3.075
		s-1.992,5.894-0.503,6.109c1.491,0.216,2.469,1.183,3.835,0.592S248.676,105.56,248.607,104.599z"/>
	<path fill="#8C6239" d="M261.518,123.222c-0.322,0.438-0.945,0.528-1.39,0.202l-16.912-12.449
		c-0.444-0.327-0.308-2.184,1.129-4.136c1.231-1.672,3.168-2.635,3.613-2.307l16.912,12.449c0.444,0.327,0.48,1.035,0.157,1.474
		L261.518,123.222z"/>
	<path fill="#666666" d="M264.06,121.35c-1.259,1.71-2.97,2.781-3.83,2.147c-0.863-0.634-0.55-2.734,0.709-4.444
		c1.259-1.71,3.203-2.609,4.066-1.975C265.865,117.713,265.318,119.641,264.06,121.35z"/>
	<path fill="#4D4D4D" d="M263.682,121.072c-0.91,1.236-2.052,2.081-2.537,1.723c-0.488-0.358-0.133-1.782,0.776-3.019
		c0.91-1.236,2.184-1.983,2.671-1.625C265.078,118.509,264.592,119.836,263.682,121.072z"/>
	<circle fill="#BAB4B6" cx="316.851" cy="360.124" r="4.728"/>
	<polygon fill="#CCCCCC" points="313.74,361.56 314.187,358.163 317.298,356.728 319.962,358.688 319.516,362.086 316.405,363.521 	
		"/>
	<circle fill="#808080" cx="316.811" cy="360.324" r="1.857"/>
	<path fill="#8C6239" d="M345.613,196.36c4.75,4.559,12.343,11.49,18.272,14.82c5.929,3.33,17.591,7.59,17.052,12.821
		s-9.025,3.123-16.246,2.672c-7.222-0.451-10.697-5.15-15.233-12.903c-4.537-7.754-4.478-8.745-10.58-12.513
		c-6.101-3.767-12.927-6.722-8.165-9.114C335.475,189.75,341.916,192.81,345.613,196.36z"/>
	<g>
		<path fill="#1A1A1A" d="M231.249,295.277c2.833,2.085,6.289,5.69,7.781,9.893l76.656,44.939l0.107-6.052
			c-6.945-4.578-77.019-48.236-82.16-52.021c-10.788-7.941-25.971-5.633-33.913,5.156c-3.017,4.098-3.283,9.021-3.918,13.564
			l3.552,0.195c0.347-3.495,1.373-8.343,3.605-11.375C209.584,290.579,222.248,288.652,231.249,295.277z"/>
	</g>
	<circle fill="#BAB4B6" cx="105.045" cy="204.215" r="4.729"/>
	<polygon fill="#CCCCCC" points="101.936,205.651 102.381,202.255 105.492,200.819 108.156,202.78 107.71,206.178 104.599,207.612 	
		"/>
	<circle fill="#808080" cx="105.005" cy="204.416" r="1.857"/>
</g>
<g id="Pedals">
	<g>
		<path fill="#E6E6E6" d="M215.358,308.062c1.403-1.971,6.749-3.688,8.402,2.621c1.104,4.214-4.487,6.48-6.146,5.652
			c-2.319-1.156-1.598-3.083-10.172-2.005c-11.013,1.387-22.434,0.687-24.93,1.669c-2.496,0.982-8.61,1.253-7.562-2.719
			c1.048-3.972,4.182-0.509,7.178-0.879C185.124,312.03,212.343,312.292,215.358,308.062z"/>
		<path fill="#B3B3B3" d="M186.556,317.839c-0.236,0.32-0.844,0.39-1.288,0.063l-13.691-10.078
			c-0.445-0.326-0.558-0.928-0.323-1.249l1.787-1.319c0.236-0.32,1.268-0.387,1.712-0.06l12.08,8.893
			c0.445,0.326,0.668,1.394,0.432,1.715L186.556,317.839z"/>
		<path fill="#CCCCCC" d="M184.358,320.824c-0.363,0.492-1.018,0.626-1.462,0.299l-13.69-10.078
			c-0.444-0.326-0.512-0.991-0.149-1.484l1.971-2.677c0.362-0.493,1.29-0.996,1.734-0.67l13.691,10.077
			c0.444,0.328,0.239,1.363-0.124,1.856L184.358,320.824z"/>
		<circle fill="#B3B3B3" cx="177.829" cy="313.668" r="2.292"/>
	</g>
</g>
<g>
	<path fill="#4D4D4D" d="M222.236,305.217c0,0-3.253,22.357-9.608,19.374c-6.355-2.986-50.89-26.137-50.166-30.446
		c0.725-4.308,2.79-17.086,12.24-12.97c9.451,4.116,23.351,12.819,27.194,11.044C204.875,290.842,222.558,302.828,222.236,305.217z"
		/>
	<path fill="#8C6239" d="M216.14,325.355c-4.927,5.003-55.483-23.832-54.758-28.141c0.109-0.65-0.344-5.544,1.521-3.995
		c7.16,5.944,19.463,14.461,32.181,20.731c9.224,4.548,22.943,6.575,22.472,8.479C216.995,324.697,216.865,324.615,216.14,325.355z"
		/>
	<path fill="none" stroke="#333333" stroke-width="2" stroke-miterlimit="10" d="M202.443,298.324
		c-0.27,2.69-7.633,4.882-7.364,2.19c0.27-2.689,6.244-6.619,7.641-6.479C204.117,294.175,202.711,295.634,202.443,298.324z"/>
	<path fill="none" stroke="#333333" stroke-width="2" stroke-linecap="round" stroke-miterlimit="10" d="M194.42,291.129
		c0,0,1.159,4.38-0.292,6.818"/>
	<path fill="none" stroke="#333333" stroke-width="2" stroke-linecap="round" stroke-miterlimit="10" d="M198.827,291.89
		c0,0,1.159,4.381-0.292,6.817"/>
	<path fill="none" stroke="#333333" stroke-width="2" stroke-linecap="round" stroke-miterlimit="10" d="M189.801,288.97
		c0,0,1.158,4.38-0.292,6.818"/>
	<path fill="none" stroke="#333333" stroke-width="2" stroke-linecap="round" stroke-miterlimit="10" d="M185.181,286.811
		c0,0,1.159,4.381-0.292,6.818"/>
</g>
<path fill="#ECC19C" d="M383.966,74.192c0,0,2.804-7.811,4.996-12.32c2.191-4.509,17.947,1.807,20.273,4.964
	c2.327,3.158-2.923,10.956-3.025,13.111C406.105,82.102,384.972,73.303,383.966,74.192z"/>
<path fill="#10669B" d="M401.093,180.313c0,0-3.276,36.081-21.189,37.925c-12.058,1.24-75.466,4.121-91.699,17.739
	c-16.231,13.617-50.893,54.588-59.429,67.241c-8.535,12.654-11.484,3.091-23.058-5.015c-11.574-8.104-19.871-5.332-7.478-21.045
	c12.393-15.712,32.479-42.933,57.05-68.72c28.193-29.592,95.351-28.324,102.136-33.677
	C364.504,169.177,404.3,169.951,401.093,180.313z"/>
<path fill="#808080" d="M408.204,76.5c8.999,8.971,8.715,20.956,9.353,37.693c0.637,16.738-15.845,100.223-25.814,93.488
	c-9.969-6.734-48.186-10.588-47.394-29.174c0.794-18.584,17.505-69.84,17.894-82.641c0.246-8.143,17.323-27.556,27.611-26.755
	C396.785,71.51,404.93,73.236,408.204,76.5z"/>
<path fill="#EFC5A5" d="M267.805,113.295c-0.858-3.656,1.819-8.171,0.767-8.723c-5.839-3.06-15.227-1.79-19.054,1.108
	c-1.281,0.969-2.98,5.068-3.539,6.631c-0.47,1.311,1.957,4.364,3.209,3.122c0.303,1.442,2.172,3.411,3.221,2.371
	c0.354,1.677,2.821,4.072,3.655,1.613c0.57,1.741,2.678,3.75,3.536,0.93C260.705,116.721,267.805,113.295,267.805,113.295z"/>
<path fill="#999999" d="M379.873,73.633c8.807-0.135,18.005-5.061,21.062,6.812c3.057,11.873-2.115,26.07-11.648,28.055
	c-9.532,1.985-53.715,6.012-64.521,5.509c-10.805-0.503-28.465,6.478-38.843,5.017c-10.341-1.457-19.554-1.062-21.001-5.382
	c-1.447-4.321-8.176-8.54-5.158-12.217c3.018-3.677,51.666-8.409,60.424-13.137S372.024,73.753,379.873,73.633z"/>
<g>
	<path fill="#EFC5A5" d="M418.404,12.394c-3.146-1.407-11.265-0.538-14.262,2.315c-2.988,2.846-6.957,2.703-10.03,5.306
		s-0.514,8.163-8.009,10.739c-6.112,2.103-5.963,5.508-2.721,6.854c5.04,2.094-0.139,3.611-1.469,4.747
		c-1.328,1.136-1.895,1.694,0.937,3.252c1.206,0.665,0.08,0.889-1.22,0.503c-1.3-0.387-2.066,1.549-1.78,3.644
		c0.286,2.094-6.091,6.584-1.092,9.938c5.001,3.354,32.902,17.869,41.114,4.96c8.728-13.718,17.271-16.112,14.136-27.021
		C430.871,26.72,435.495,20.034,418.404,12.394z"/>
	<path fill="#603813" d="M425.364,57.777c0,0-1.574,7.061-3.729,7.018c-2.155-0.043-5.804,1.207-5.599-2.813s1.99-5.069,1.21-9.02
		c-0.779-3.952,0.144-12.489-1.965-13.958c-2.11-1.469-3.487-1.772-5.03,0.431c-1.542,2.205-3.841,0.484-4.617-0.656
		c-0.777-1.14,2.716-7.594,3.737-9.314l10.056,4.877L425.364,57.777z"/>
	<g>
		<path fill="#FFFFFF" d="M394.719,26.873c-0.297,0.081-0.893,1.505-0.893,1.505s3.134,2.38,4.871,3.182
			C400.352,32.324,399.708,25.521,394.719,26.873z"/>
		<circle fill="#603813" cx="396.86" cy="28.593" r="1.313"/>
		<circle cx="396.86" cy="28.592" r="0.716"/>
	</g>
	<path fill="none" stroke="#29ABE2" stroke-width="1.5" stroke-linecap="round" stroke-miterlimit="10" d="M414.556,33.411
		c0,0-11.306,22.75-17.92,25.027c-6.615,2.275-12.862,5.618-14.757,3.913"/>
	<g>
		<path d="M393.948,33.005c-2.851-1.691-2.613-3.736-2.09-5.33c0.066-0.202,0.114-0.366,0.152-0.501
			c-0.017,0.012-0.029,0.022-0.043,0.032c-0.142,0.109-0.282,0.215-0.408,0.298c-0.099,0.067-0.196,0.151-0.3,0.239
			c-0.51,0.435-1.365,1.16-2.83,0.292c-0.248-0.148,0.346,0.168,0.072-0.065c-0.535-0.455-0.827-0.991-0.869-1.596
			c-0.085-1.267,0.956-2.428,1.646-3.195c0.179-0.2,0.329-0.359,0.399-0.475c0.041-0.064,0.165-0.262-0.253-0.637l-0.306-0.274
			l0.73-1.288l2.521,1.574c0.101,0.063,8.023,5.254,11.419,7.269l11.361,9.266c0,0,1.371,0.813,1.783,2.998
			c0.192,1.017-1.753,3.994-1.753,3.994l-0.492-0.557c0,0,1.889-3.23,0.513-4.741c-2.13-2.335-12.292-8.498-12.292-8.498
			l-0.448-0.347c-0.161-0.096-0.403-0.156-0.686,0.071c-0.063,0.052-0.197,0.289-0.297,0.463c-0.681,1.188-2.097,3.661-6.748,1.425
			C394.447,33.286,394.188,33.147,393.948,33.005z M394.163,23.89c0.124,0.074,3.404,2.539,1.7,1.452
			c-1.909-1.219-2.746,1.708-3.055,2.646c-0.579,1.76-0.404,3.207,2.356,4.533c3.813,1.832,4.795,0.115,5.446-1.021
			c0.186-0.327,0.721-1.232,0.843-1.466c0.503-0.96-0.442-1.497-0.442-1.497c-3.604-2.164-9.011-5.673-9.087-5.722l-0.096-0.075
			c-0.449-0.285-1.227,0.279-1.533,0.563c-0.339,0.313-1.722,2.159-1.665,3.004c0.022,0.329,0.191,0.623,0.518,0.901
			c0.231,0.197-0.409-0.153-0.208-0.034c0.851,0.505,1.194,0.212,1.671-0.194c0.136-0.115,0.267-0.225,0.397-0.311
			c0.108-0.072,0.228-0.165,0.35-0.259c0.42-0.322,2.46-2.423,1.78-2.813C391.795,22.831,394.094,23.85,394.163,23.89z"/>
	</g>
	<path fill="none" stroke="#29ABE2" stroke-width="1.5" stroke-linecap="round" stroke-miterlimit="10" d="M418.949,49.197
		c-4.829,8.137-14.819,5.896-17.897,5.744"/>
	<path fill="#B3B3B3" d="M384.743,15.721c3.824-1.219,7.081-0.801,8.726-2.15c2.139-1.755,6.147-13.443,18.343-9.5
		c12.195,3.943,34.026,13.215,30.071,28.697c-3.955,15.483-8.669,22.763-13.374,31.018c-2.065,3.625-16.955-10.636-14.23-15.228
		c6.379-10.75-1.836-15.327-8.218-16.982c-5.358-1.389-7.116-6.294-13.197-9.292C386.783,19.287,380.547,17.058,384.743,15.721z"/>
	<path fill="#999999" d="M401.448,57.101c-0.353,0.345-0.924,0.334-1.273-0.026l-1.272-1.302c-0.351-0.36-0.347-0.931,0.007-1.275
		l1.922-1.875c0.354-0.345,0.924-0.333,1.274,0.026l1.27,1.303c0.352,0.36,0.349,0.931-0.006,1.275L401.448,57.101z"/>
</g>
</svg>
