<?xml version="1.0" encoding="utf-8"?>
<!-- Generator: Adobe Illustrator 16.0.0, SVG Export Plug-In . SVG Version: 6.00 Build 0)  -->
<!DOCTYPE svg PUBLIC "-//W3C//DTD SVG 1.1//EN" "http://www.w3.org/Graphics/SVG/1.1/DTD/svg11.dtd">
<svg version="1.1" xmlns="http://www.w3.org/2000/svg" xmlns:xlink="http://www.w3.org/1999/xlink" x="0px" y="0px" width="502px"
	 height="448px" viewBox="0 0 502 448" enable-background="new 0 0 502 448" xml:space="preserve">
<g id="Chain">
	<g>
		<path fill="#B3B3B3" d="M311,334.185c0,0.398-0.447,0.815-1,0.815h-17c-0.552,0-1-0.417-1-0.815l0.656-2.122
			c0-0.398,0.792-1.063,1.344-1.063h15c0.553,0,1.363,0.727,1.363,1.125L311,334.185z"/>
		<path fill="#CCCCCC" d="M311,337.892c0,0.612-0.447,1.108-1,1.108h-17c-0.552,0-1-0.496-1-1.108v-3.324
			c0-0.612,0.448-1.567,1-1.567h17c0.553,0,1,0.955,1,1.567V337.892z"/>
		<circle fill="#B3B3B3" cx="301.5" cy="336" r="2.291"/>
		<path fill="#E6E6E6" d="M273.258,362.693c-2.416-0.112-7.068,3.031-3.125,8.228c2.633,3.47,7.867,0.472,8.241-1.345
			c0.522-2.539-1.439-3.161,4.703-9.24c7.89-7.81,14.389-17.226,16.703-18.582c2.314-1.357,6.303-6.002,2.529-7.629
			c-3.772-1.626-2.981,2.976-5.123,5.105C295.045,341.359,278.447,362.936,273.258,362.693z"/>
	</g>
	<path fill="none" stroke="#999999" stroke-width="2" stroke-miterlimit="10" d="M254.667,377.667c0,0,8.809,19.284,35.833,8.062
		c51.021-21.188,104.846-12.212,102.104-38.402C390.417,326.428,366.25,346,273.167,346
		C248.871,346,249.134,372.339,254.667,377.667z"/>
</g>
<g id="FrontWheel">
	<g>
		<g>
			<path fill="#EAD1B7" d="M118,274c41.421,0,75,33.578,75,75s-33.579,75-75,75c-41.421,0-75-33.578-75-75S76.579,274,118,274
				 M118,266c-45.766,0-83,37.233-83,83s37.233,83,83,83c45.767,0,83-37.233,83-83S163.766,266,118,266L118,266z"/>
		</g>
	</g>
	<g>
		<path fill="#B3B3B3" d="M118,277.088c39.716,0,71.912,32.196,71.912,71.912c0,39.717-32.196,71.912-71.912,71.912
			c-39.715,0-71.911-32.195-71.911-71.912C46.088,309.284,78.284,277.088,118,277.088 M118,273.088
			c-41.857,0-75.911,34.054-75.911,75.912S76.142,424.912,118,424.912c41.858,0,75.912-34.054,75.912-75.912
			S159.857,273.088,118,273.088L118,273.088z"/>
	</g>
	<g>
		<path fill="#333333" d="M118,277.97c39.229,0,71.03,31.801,71.03,71.03c0,39.229-31.801,71.03-71.03,71.03
			c-39.228,0-71.029-31.801-71.029-71.03C46.971,309.771,78.771,277.97,118,277.97 M118,275.97
			c-40.268,0-73.029,32.761-73.029,73.03S77.731,422.03,118,422.03c40.269,0,73.03-32.762,73.03-73.03S158.268,275.97,118,275.97
			L118,275.97z"/>
	</g>
	<g>
		<g>
			<path fill="#DCC3A5" d="M118,274c41.421,0,75,33.578,75,75s-33.579,75-75,75c-41.421,0-75-33.578-75-75S76.579,274,118,274
				 M118,272c-42.458,0-77,34.542-77,77s34.542,77,77,77c42.458,0,77-34.542,77-77S160.458,272,118,272L118,272z"/>
		</g>
	</g>
	<g>
		<line fill="none" stroke="#333333" stroke-miterlimit="10" x1="45" y1="349.5" x2="191" y2="349.5"/>
		<line fill="none" stroke="#333333" stroke-miterlimit="10" x1="45" y1="349.5" x2="191" y2="349.5"/>
		<line fill="none" stroke="#333333" stroke-miterlimit="10" x1="54.959" y1="385.729" x2="181.042" y2="312.934"/>
		<line fill="none" stroke="#333333" stroke-miterlimit="10" x1="54.959" y1="385.729" x2="181.042" y2="312.934"/>
		<line fill="none" stroke="#333333" stroke-miterlimit="10" x1="81.604" y1="412.372" x2="154.398" y2="286.289"/>
		<line fill="none" stroke="#333333" stroke-miterlimit="10" x1="81.604" y1="412.372" x2="154.398" y2="286.289"/>
		<line fill="none" stroke="#333333" stroke-miterlimit="10" x1="118.5" y1="422" x2="118.5" y2="276"/>
		<line fill="none" stroke="#333333" stroke-miterlimit="10" x1="118.5" y1="422" x2="118.5" y2="276"/>
		<line fill="none" stroke="#333333" stroke-miterlimit="10" x1="154.519" y1="411.921" x2="81.725" y2="285.837"/>
		<line fill="none" stroke="#333333" stroke-miterlimit="10" x1="154.519" y1="411.921" x2="81.725" y2="285.837"/>
		<line fill="none" stroke="#333333" stroke-miterlimit="10" x1="180.921" y1="385.275" x2="54.839" y2="312.481"/>
	</g>
	<g>
		<line fill="none" stroke="#808080" stroke-miterlimit="10" x1="47.772" y1="368.16" x2="188.399" y2="330.479"/>
		<line fill="none" stroke="#808080" stroke-miterlimit="10" x1="47.772" y1="368.16" x2="188.399" y2="330.479"/>
		<line fill="none" stroke="#808080" stroke-miterlimit="10" x1="66.614" y1="400.792" x2="169.559" y2="297.846"/>
		<line fill="none" stroke="#808080" stroke-miterlimit="10" x1="66.614" y1="400.792" x2="169.559" y2="297.846"/>
		<line fill="none" stroke="#808080" stroke-miterlimit="10" x1="99.247" y1="419.632" x2="136.927" y2="279.005"/>
		<line fill="none" stroke="#808080" stroke-miterlimit="10" x1="99.247" y1="419.632" x2="136.927" y2="279.005"/>
		<line fill="none" stroke="#808080" stroke-miterlimit="10" x1="137.16" y1="419.229" x2="99.48" y2="278.601"/>
		<line fill="none" stroke="#808080" stroke-miterlimit="10" x1="137.16" y1="419.229" x2="99.48" y2="278.601"/>
		<line fill="none" stroke="#808080" stroke-miterlimit="10" x1="169.559" y1="400.326" x2="66.613" y2="297.378"/>
		<line fill="none" stroke="#808080" stroke-miterlimit="10" x1="169.559" y1="400.326" x2="66.613" y2="297.378"/>
		<line fill="none" stroke="#808080" stroke-miterlimit="10" x1="188.166" y1="367.754" x2="47.539" y2="330.073"/>
	</g>
</g>
<g id="BackLeg">
	<g>
		<path fill="#4D4D4D" d="M311.024,293.419c0,0,17.201,14.649,11.294,18.442c-5.91,3.794-49.205,29.188-52.467,26.281
			c-3.263-2.905-12.984-11.451-4.471-17.264c8.513-5.813,23.278-12.953,23.818-17.151
			C289.617,300.472,309.173,291.877,311.024,293.419z"/>
		<path fill="#8C6239" d="M324.834,309.295c1.615,6.834-49.696,34.303-52.959,31.396c-0.493-0.438-4.877-2.658-2.574-3.413
			c8.843-2.9,22.6-8.787,34.674-16.22c8.759-5.392,17.773-15.93,19.136-14.518C324.731,308.222,324.594,308.287,324.834,309.295z"/>
	</g>
	<path fill="#10669B" d="M337.604,155.333c0,0,12.729,30.707,3.063,38.02S276.25,212.66,271.25,233.25s27.619,43.416,36.944,55.5
		c6.679,8.655,5.125,7.687-5.277,14.333c-11.906,7.606-20.594,13.021-33.813-2.002c-15.583-17.711-30.162-30.076-47.159-61.377
		C208.75,215.403,294.5,180,296.791,171.667C299.182,162.973,334.045,145.089,337.604,155.333z"/>
</g>
<g id="BackWheel">
	<g>
		<line fill="none" stroke="#333333" stroke-miterlimit="10" x1="308" y1="349.5" x2="454" y2="349.5"/>
		<line fill="none" stroke="#333333" stroke-miterlimit="10" x1="308" y1="349.5" x2="454" y2="349.5"/>
		<line fill="none" stroke="#333333" stroke-miterlimit="10" x1="317.959" y1="385.729" x2="444.042" y2="312.934"/>
		<line fill="none" stroke="#333333" stroke-miterlimit="10" x1="317.959" y1="385.729" x2="444.042" y2="312.934"/>
		<line fill="none" stroke="#333333" stroke-miterlimit="10" x1="344.604" y1="412.372" x2="417.398" y2="286.289"/>
		<line fill="none" stroke="#333333" stroke-miterlimit="10" x1="344.604" y1="412.372" x2="417.398" y2="286.289"/>
		<line fill="none" stroke="#333333" stroke-miterlimit="10" x1="381.5" y1="422" x2="381.5" y2="276"/>
		<line fill="none" stroke="#333333" stroke-miterlimit="10" x1="381.5" y1="422" x2="381.5" y2="276"/>
		<line fill="none" stroke="#333333" stroke-miterlimit="10" x1="417.519" y1="411.921" x2="344.725" y2="285.837"/>
		<line fill="none" stroke="#333333" stroke-miterlimit="10" x1="417.519" y1="411.921" x2="344.725" y2="285.837"/>
		<line fill="none" stroke="#333333" stroke-miterlimit="10" x1="443.921" y1="385.275" x2="317.839" y2="312.481"/>
	</g>
	<g>
		<line fill="none" stroke="#808080" stroke-miterlimit="10" x1="310.772" y1="368.16" x2="451.399" y2="330.479"/>
		<line fill="none" stroke="#808080" stroke-miterlimit="10" x1="310.772" y1="368.16" x2="451.399" y2="330.479"/>
		<line fill="none" stroke="#808080" stroke-miterlimit="10" x1="329.613" y1="400.792" x2="432.559" y2="297.846"/>
		<line fill="none" stroke="#808080" stroke-miterlimit="10" x1="329.613" y1="400.792" x2="432.559" y2="297.846"/>
		<line fill="none" stroke="#808080" stroke-miterlimit="10" x1="362.246" y1="419.632" x2="399.928" y2="279.005"/>
		<line fill="none" stroke="#808080" stroke-miterlimit="10" x1="362.246" y1="419.632" x2="399.928" y2="279.005"/>
		<line fill="none" stroke="#808080" stroke-miterlimit="10" x1="400.16" y1="419.229" x2="362.48" y2="278.601"/>
		<line fill="none" stroke="#808080" stroke-miterlimit="10" x1="400.16" y1="419.229" x2="362.48" y2="278.601"/>
		<line fill="none" stroke="#808080" stroke-miterlimit="10" x1="432.559" y1="400.326" x2="329.613" y2="297.378"/>
		<line fill="none" stroke="#808080" stroke-miterlimit="10" x1="432.559" y1="400.326" x2="329.613" y2="297.378"/>
		<line fill="none" stroke="#808080" stroke-miterlimit="10" x1="451.166" y1="367.754" x2="310.539" y2="330.073"/>
	</g>
	<g>
		<g>
			<path fill="#EAD1B7" d="M381,274c41.421,0,75,33.578,75,75s-33.579,75-75,75c-41.422,0-75-33.578-75-75S339.578,274,381,274
				 M381,266c-45.767,0-83,37.233-83,83s37.233,83,83,83s83-37.233,83-83S426.767,266,381,266L381,266z"/>
		</g>
	</g>
	<g>
		<path fill="#B3B3B3" d="M381,277.088c39.715,0,71.912,32.196,71.912,71.912c0,39.717-32.197,71.912-71.912,71.912
			c-39.716,0-71.912-32.195-71.912-71.912C309.088,309.284,341.284,277.088,381,277.088 M381,273.088
			c-41.858,0-75.912,34.054-75.912,75.912s34.054,75.912,75.912,75.912s75.912-34.054,75.912-75.912S422.858,273.088,381,273.088
			L381,273.088z"/>
	</g>
	<g>
		<path fill="#333333" d="M381,277.97c39.229,0,71.029,31.801,71.029,71.03c0,39.229-31.801,71.03-71.029,71.03
			s-71.029-31.801-71.029-71.03C309.971,309.771,341.771,277.97,381,277.97 M381,275.97c-40.269,0-73.029,32.761-73.029,73.03
			s32.761,73.03,73.029,73.03s73.029-32.762,73.029-73.03S421.269,275.97,381,275.97L381,275.97z"/>
	</g>
	<g>
		<g>
			<path fill="#DCC3A5" d="M381,274c41.421,0,75,33.578,75,75s-33.579,75-75,75c-41.422,0-75-33.578-75-75S339.578,274,381,274
				 M381,272c-42.458,0-77,34.542-77,77s34.542,77,77,77s77-34.542,77-77S423.458,272,381,272L381,272z"/>
		</g>
	</g>
	<g>
		<path fill="#CCCCCC" d="M381.725,361h-1.45l-0.972-1.559l-1.489,1.577l-1.379-0.38l-0.358-2.007l-1.862,0.926l-1.173-0.843
			l0.289-2.048l-2.053,0.291l-0.852-1.172l0.909-1.861l-2.041-0.358l-0.448-1.379l1.713-1.49L369,349.725v-1.45l1.559-0.972
			l-1.576-1.49l0.379-1.379l2.008-0.358l-0.927-1.862l0.843-1.173l2.049,0.29l-0.291-2.053l1.172-0.853l1.861,0.91l0.358-2.042
			l1.379-0.448l1.49,1.714l0.972-1.559h1.449l0.973,1.559l1.49-1.578l1.379,0.381l0.358,2.007l1.862-0.926l1.173,0.843l-0.289,2.049
			l2.053-0.292l0.853,1.172l-0.91,1.861l2.041,0.358l0.448,1.379l-1.714,1.49l1.559,0.972v1.45l-1.559,0.973l1.577,1.49
			l-0.379,1.379l-2.008,0.358l0.927,1.862l-0.844,1.173l-2.048-0.289l0.291,2.052l-1.172,0.853l-1.861-0.91l-0.358,2.042
			l-1.379,0.448l-1.49-1.714L381.725,361z"/>
	</g>
</g>
<g id="Frame">
	<g>
		<path fill="#CCCCCC" d="M274.84,389.604l1.769-0.131l0.551-1.244l0.894,1.024l1.727-0.394l0.36-1.312l1.036,0.881l1.65-0.648
			l0.161-1.35l1.154,0.717l1.536-0.886l-0.042-1.359l1.247,0.536l1.387-1.105l-0.246-1.338l1.316,0.345l1.207-1.3l-0.442-1.285
			l1.353,0.146l0.998-1.465l-0.627-1.207l1.357-0.059l0.77-1.598l-0.801-1.098l1.333-0.261l0.522-1.694l-0.958-0.968l1.277-0.455
			l0.254-1.754l-0.925-0.813l1.343-0.643v-1.772l-1.343-0.643l1.033-0.813l-0.308-1.753l-1.304-0.457l0.943-0.968l-0.529-1.694
			l-1.335-0.259l0.799-1.099l-0.77-1.597l-1.358-0.06l0.627-1.207l-0.998-1.465l-1.353,0.146l0.442-1.285l-1.207-1.3l-1.316,0.344
			l0.246-1.338l-1.387-1.104l-1.247,0.535l0.042-1.358l-1.536-0.887l-1.154,0.717l-0.161-1.35l-1.65-0.647l-1.036,0.881l-0.36-1.312
			l-1.727-0.395l-0.894,1.024l-0.551-1.243l-1.769-0.132l-0.729,1.146l-0.73-1.146l-1.768,0.132l-0.552,1.243l-0.893-1.024
			l-1.728,0.395l-0.359,1.312l-1.037-0.881l-1.649,0.647l-0.16,1.35l-1.155-0.717l-1.535,0.887l0.041,1.358l-1.248-0.535
			l-1.387,1.104l0.247,1.338l-1.316-0.344l-1.207,1.3l0.442,1.285l-1.354-0.146l-0.998,1.465l0.627,1.207l-1.358,0.06l-0.77,1.597
			l0.799,1.099l-1.337,0.259l-0.529,1.694l0.947,0.968l-1.302,0.457l-0.304,1.753l0.714,0.813L252,367.114v1.772l1.255,0.643
			l-0.779,0.813l0.338,1.753l1.315,0.456l-0.936,0.968l0.528,1.694l1.344,0.261l-0.801,1.098l0.772,1.598l1.358,0.059l-0.627,1.207
			l0.998,1.465l1.354-0.146l-0.442,1.285l1.207,1.3l1.316-0.345l-0.247,1.338l1.387,1.105l1.248-0.536l-0.041,1.359l1.535,0.886
			l1.155-0.717l0.16,1.35l1.649,0.648l1.037-0.881l0.359,1.312l1.728,0.394l0.893-1.024l0.552,1.244l1.768,0.131l0.73-1.146
			L274.84,389.604z"/>
	</g>
	<polygon fill="#141414" points="276,363.375 377.754,349 378.499,352 276,369 	"/>
	<path fill="#CCCCCC" d="M310.875,236.5c0,0,2.781-9.344,4.358-14.125c0.513-1.554,2.015-3.604,4.702-3.917
		c1.526-0.178,2.939-4.625,2.752-6.177l5.938,0.844c0,0-0.381,2.885-0.503,4.38c-0.156,1.907-0.997,6.808-5.31,7.12
		c-1.317,0.096-2.688,1.563-2.688,1.563l-3.75,12.156L310.875,236.5z"/>
	<g>
		<path fill="#1A1A1A" d="M191.254,299.74c20,27.372,14.838,57.956,14.309,63.573c-0.313,3.313-5.785,4.856-6.063-3.063
			c-0.25-7.125,2.158-16.509-1.25-31.5c-3.036-13.355-19.167-41.667-41.035-52.75c-18.232-9.24-40.798-9.833-45.173-9.417
			c-1.859,0.177-4.247-1.567-4.678-2.264c-1.604-2.593,3.202-2.19,10.517-2.194C158.333,262.103,179.465,283.605,191.254,299.74z"/>
	</g>
	<g>
		<path fill="#1A1A1A" d="M466.73,328.829c-1.667-5.392-8.637-35.614-37.609-53.215c-8.186-4.973-18.833-10.253-31.808-12.7
			c-0.312-0.126-0.63-0.214-0.944-0.253c-5.602-0.684-36.032-6.68-63.94,12.564c-16.451,11.344-38.512,34.524-39.512,69.858
			c-0.207,7.312,0.174,12.564,2.81,11.032c0.709-0.414,2.517-2.751,2.392-4.615c-0.297-4.385,1.234-23.859,10.97-41.834
			c9.725-17.951,29.953-32.655,44.65-38.26c4.469-1.386,9.987-2.793,16-3.732c10.861-1.437,19.018-0.938,25.794,0.067
			c22.206,4.551,44.003,21.865,51.182,31.977c8.9,12.536,10.278,22.125,13.243,28.609
			C463.252,335.533,467.713,332.007,466.73,328.829z"/>
	</g>
	<polygon fill="#141414" points="312.153,247.397 379.875,346 377,348.376 311.083,252.75 	"/>
	<path fill="#CCCCCC" d="M163.313,197.375l17.75,0.375c0,0,5-0.438,3.5,3.688S179,217.125,179,217.125l-4.5-1.438l3-8.75
		c0,0,1.188-2.938-3.125-2.938S166,204,166,204s-1.664-0.25-4.938,2.313c-3.071,2.403-8-0.938-8-4.063
		C153.063,196.75,156.75,197.375,163.313,197.375z"/>
	<polygon fill="#141414" points="176.238,227.855 308.037,244.088 309.158,240.495 315.233,242.253 313.01,249.382 275.695,369.935 
		270.495,364.472 306.27,249.756 174.313,234.025 168.741,250.073 274.792,359.833 276,370.25 166.416,256.768 164.88,261.189 
		158.58,260.081 172.543,218.743 178.595,220.587 	"/>
	<path fill="#141414" d="M162.238,268.855l-1.924,6.17l-5.573,16.047l-2.325,6.695c0,0-7.374,15.384-10.332,20.232
		c-4.78,7.835-21.435,29.803-21.435,29.803l-1.811-1.285c0,0,14.29-22.295,18.496-30.684c2.85-5.684,10.645-24.813,10.645-24.813
		l10.565-31.277l6.052,1.844L162.238,268.855z"/>
	<path fill="#B3B3B3" d="M165.55,262.631c-0.184,0.521-0.689,0.818-1.129,0.662l-6.379-2.244c-0.44-0.156-0.649-0.703-0.465-1.224
		l0.332-0.943c0.183-0.521,0.689-0.818,1.129-0.663l6.379,2.244c0.44,0.156,0.648,0.704,0.465,1.225L165.55,262.631z"/>
	<path fill="#B3B3B3" d="M179.973,221.624c-0.21,0.598-0.771,0.946-1.253,0.775l-6.977-2.455c-0.481-0.17-0.702-0.792-0.491-1.389
		l0.381-1.082c0.21-0.598,0.772-0.945,1.253-0.775l6.978,2.455c0.482,0.171,0.702,0.792,0.491,1.39L179.973,221.624z"/>
	<path fill="#B3B3B3" d="M179.709,219.179c-0.21,0.598-0.678,0.979-1.045,0.848l-5.31-1.868c-0.366-0.129-0.493-0.718-0.283-1.315
		l0.381-1.082c0.21-0.598,0.679-0.979,1.044-0.849l5.31,1.867c0.367,0.13,0.493,0.719,0.283,1.317L179.709,219.179z"/>
	<path fill="#B3B3B3" d="M316.396,242.234c-0.184,0.606-0.697,0.989-1.146,0.852l-6.511-1.966c-0.448-0.136-0.665-0.738-0.48-1.344
		l0.331-1.098c0.184-0.607,0.696-0.989,1.145-0.853l6.511,1.966c0.449,0.137,0.665,0.738,0.481,1.345L316.396,242.234z"/>
	<path fill="#B3B3B3" d="M316.359,239.905c-0.184,0.606-0.632,1.008-1.002,0.895l-5.361-1.619c-0.371-0.112-0.522-0.694-0.339-1.3
		l0.332-1.098c0.184-0.607,0.632-1.008,1.002-0.896l5.362,1.619c0.37,0.113,0.521,0.695,0.337,1.302L316.359,239.905z"/>
	<path fill="#E6E6E6" d="M167.063,191.125c0,0-16.064-0.588-13.377,3.35c1.698,2.488,7.589,4.715,6.981,7.442
		c-0.729,3.271-4.615,4.158-6.271,1.363c-0.941-1.588-2.951-3.173-4.146-4.655c-4.688-5.813-5.188-5.625-2.167-9.958
		c2.764-3.965,19.417-2.979,19.417-2.979L167.063,191.125z"/>
	<path fill="#666666" d="M168.369,181.312c1.006-0.182,2.914,0.423,3.43,2.239c0.332,1.164,0.756,7.722-0.03,9.876
		c-0.712,1.951-6.913,2.41-7.136-4.067C164.409,182.884,166.564,181.638,168.369,181.312z"/>
	<path fill="#808080" d="M174.563,183.669c-0.625-0.735-3-1.041-4.375-0.857s-2.063,2.435-2,5.29s1.889,5.928,3.217,5.218
		s2.689-0.511,3.439-1.797C175.594,190.237,175.188,184.403,174.563,183.669z"/>
	<path fill="#8C6239" d="M196,191.014c0,0.544-0.448,0.986-1,0.986h-21c-0.552,0-1.542-1.576-1.542-4c0-2.076,0.989-4,1.542-4h21
		c0.552,0,1,0.549,1,1.094V191.014z"/>
	<path fill="#666666" d="M196.938,188c0,2.123-0.743,4-1.813,4s-2.063-1.877-2.063-4s1.034-4,2.104-4S196.938,185.877,196.938,188z"
		/>
	<path fill="#4D4D4D" d="M196.469,188c0,1.535-0.419,2.892-1.023,2.892c-0.604,0-1.164-1.357-1.164-2.892s0.583-2.892,1.188-2.892
		C196.073,185.108,196.469,186.465,196.469,188z"/>
	<circle fill="#BAB4B6" cx="381" cy="349" r="4.729"/>
	<polygon fill="#CCCCCC" points="379.346,352 377.691,349 379.346,346 382.654,346 384.309,349 382.654,352 	"/>
	<circle fill="#808080" cx="381.086" cy="349.184" r="1.857"/>
	<path fill="#8C6239" d="M307.083,200.063c6.527,0.856,16.751,1.937,23.501,1.104s18.666-4.316,21.333,0.217
		s-5.417,7.866-11.5,11.783s-11.667,2.193-19.917-1.362s-8.79-4.388-15.937-3.805s-14.396,2.25-11.98-2.5
		S302,199.396,307.083,200.063z"/>
	<g>
		<path fill="#1A1A1A" d="M273.619,347.521c3.518,0,8.438,0.855,12.131,3.354l88.375-9.25l-3.5-4.938
			c-8.309,0.431-90.622,6.811-97.006,6.811c-13.396,0-24.255,10.86-24.255,24.256c0,5.089,2.704,9.212,4.886,13.247l2.976-1.949
			c-1.792-3.02-3.839-7.532-3.839-11.298C253.386,356.58,262.444,347.521,273.619,347.521z"/>
	</g>
	<circle fill="#BAB4B6" cx="118" cy="349" r="4.729"/>
	<polygon fill="#CCCCCC" points="116.346,352 114.691,349 116.346,346 119.654,346 121.309,349 119.654,352 	"/>
	<circle fill="#808080" cx="118.086" cy="349.184" r="1.857"/>
</g>
<g id="Pedals">
	<g>
		<path fill="#E6E6E6" d="M268.4,367.237c-0.038-2.418,3.248-6.971,8.32-2.869c3.387,2.739,0.229,7.878-1.598,8.195
			c-2.553,0.444-3.115-1.536-9.381,4.416c-8.048,7.645-17.66,13.851-19.088,16.122c-1.428,2.271-6.192,6.114-7.702,2.293
			c-1.51-3.82,3.066-2.889,5.26-4.963C246.404,388.357,268.481,372.432,268.4,367.237z"/>
		<path fill="#B3B3B3" d="M251,392.185c0,0.398-0.448,0.815-1,0.815h-17c-0.552,0-1-0.417-1-0.815l0.656-2.122
			c0-0.398,0.792-1.063,1.344-1.063h15c0.552,0,1.364,0.727,1.364,1.125L251,392.185z"/>
		<path fill="#CCCCCC" d="M251,395.892c0,0.612-0.448,1.108-1,1.108h-17c-0.552,0-1-0.496-1-1.108v-3.324
			c0-0.612,0.448-1.567,1-1.567h17c0.552,0,1,0.955,1,1.567V395.892z"/>
		<circle fill="#B3B3B3" cx="241.5" cy="394" r="2.292"/>
	</g>
</g>
<g id="Max">
	<path fill="#ECC19C" d="M234.5,81c0,0-5.5-6.167-6.833-11s14.667-10.5,18.5-9.667s7.487,8.606,8.833,10.292
		S234.667,79.667,234.5,81z"/>
	<path fill="#EFC5A5" d="M224.417,10.961c-3.424,0.396-9.962,5.286-11.083,9.269c-1.118,3.972-9.102,5.797-10.417,9.604
		c-1.315,3.807,2.821,5.069,1.083,12c-1.618,6.452-0.191,7.284,0.75,10.667c0.678,2.436,1.263,8.608,2.578,10.264
		c1.315,1.655,1.122,8.771,7.133,9.103c6.011,0.332,37.414-1.423,37.889-16.716c0.505-16.251,6.63-22.67-1.634-30.451
		C242.45,16.919,243.014,8.809,224.417,10.961z"/>
	<g>
		<path fill="#4D4D4D" d="M272.253,360.868c0,0,10.634,19.935,3.747,21.299c-6.888,1.363-56.478,9.119-58.449,5.22
			s-7.882-15.414,2.168-17.701c10.051-2.288,26.405-3.519,28.447-7.227C249.75,359.583,271.095,358.755,272.253,360.868z"/>
		<path fill="#8C6239" d="M279.281,380.701c-1.001,6.95-58.81,13.698-60.781,9.799c-0.297-0.589-3.563-4.261-1.144-4.119
			c9.29,0.543,24.248,0.108,38.206-2.381c10.125-1.806,22.375-8.306,23.125-6.493C279.581,379.665,279.428,379.676,279.281,380.701z
			"/>
		<path fill="none" stroke="#333333" stroke-width="2" stroke-miterlimit="10" d="M252.226,367.052
			c1.378,2.326-3.253,8.456-4.631,6.13c-1.378-2.326,1.104-9.032,2.313-9.748C251.115,362.718,250.848,364.727,252.226,367.052z"/>
		<path fill="none" stroke="#333333" stroke-width="2" stroke-linecap="round" stroke-miterlimit="10" d="M241.5,366.013
			c0,0,3.53,2.841,3.807,5.664"/>
		<path fill="none" stroke="#333333" stroke-width="2" stroke-linecap="round" stroke-miterlimit="10" d="M245.5,364.013
			c0,0,3.53,2.841,3.807,5.664"/>
		<path fill="none" stroke="#333333" stroke-width="2" stroke-linecap="round" stroke-miterlimit="10" d="M236.5,367.013
			c0,0,3.53,2.841,3.807,5.664"/>
		<path fill="none" stroke="#333333" stroke-width="2" stroke-linecap="round" stroke-miterlimit="10" d="M231.5,368.013
			c0,0,3.53,2.841,3.807,5.664"/>
	</g>
	<path fill="#10669B" d="M342.25,154.25c0,0,18.75,31,5.417,43.104c-8.976,8.147-58.333,48.056-63.333,68.646
		s-8.627,74.132-8,89.383s-7.417,9.296-21.542,9.63s-19.164,7.485-18.498-12.515s0.706-53.83,5.206-89.163
		c5.164-40.545,60-79.335,62.291-87.668C306.182,166.973,338.69,144.005,342.25,154.25z"/>
	<path fill="#603813" d="M253.687,46.438c0,0,2.001,6.875,0.333,7.938c-1.668,1.063-3.892,4-5.559,0.438
		c-1.668-3.563-0.778-5.375-3.169-8.375c-2.39-3-5.559-10.813-7.838-11s-3.471,0.255-3.651,2.938
		c-0.181,2.682-2.718,2.376-3.83,1.792s-1.369-7.917-1.369-9.917l9.907-0.938L253.687,46.438z"/>
	<path fill="#808080" d="M256.833,67.667c12.667,1,32.333,11.75,43.667,24.083c11.334,12.333,62.707,77.417,50.75,78.75
		s-43.558,23.167-55,8.5s-53.675-57.667-61.675-67.667c-5.089-6.361-10.863-29.595,0.425-34
		C241.833,74.667,252.224,67.303,256.833,67.667z"/>
	<path fill="#EFC5A5" d="M195.179,179.292c-2.859-2.435-3.379-7.659-4.554-7.479c-6.517,0.997-13.323,7.585-14.688,12.188
		c-0.457,1.54,0.604,5.848,1.08,7.438c0.399,1.334,4.163,2.354,4.435,0.612c1.1,0.981,3.772,1.459,4,0
		c1.278,1.141,4.686,1.606,3.9-0.868c1.492,1.064,4.379,1.432,3.399-1.347C191.491,186.261,195.179,179.292,195.179,179.292z"/>
	<g>
		<path fill="#FFFFFF" d="M215.342,37.602c-0.114,0.287,0.096,0.648,0.096,0.648s4.938,0.979,6-0.052
			C222.171,37.487,217.906,31.125,215.342,37.602z"/>
		<circle fill="#603813" cx="218.415" cy="36.627" r="1.585"/>
		<circle cx="218.415" cy="36.627" r="0.868"/>
	</g>
	<g>
		<path fill="#FFFFFF" d="M210.69,37.187c0.108,0.246-0.083,0.564-0.083,0.564s-4.297,0.852-5.222-0.045
			C204.747,37.087,208.156,31.417,210.69,37.187z"/>
		<circle fill="#603813" cx="208.016" cy="36.339" r="1.461"/>
		<circle cx="208.016" cy="36.339" r="0.8"/>
	</g>
	<path fill="#999999" d="M243.5,81c7.012-5.329,11.5-14.75,21-7s13.75,22.25,7.25,29.5S254.5,146,245.5,152
		s-23.109,16.192-32.333,21.167c-9.192,4.957-16.377,10.737-20.104,8.115s-11.646-2.031-11.396-6.781s40.649-31.5,44.899-40.5
		S237.25,85.75,243.5,81z"/>
	<g>
		<path d="M215.688,42.229c-3.583,0.168-3.188-2.436-3.656-4.053c-0.059-0.204-0.111-0.368-0.159-0.501
			c-0.007,0.018-0.013,0.035-0.019,0.05c-0.064,0.169-0.128,0.335-0.193,0.475c-0.051,0.11-0.089,0.235-0.131,0.365
			c-0.205,0.644-0.549,3.723-2.39,3.81c-0.313,0.015-4.153,0.172-4.948-0.79c-0.831-1.006-0.571-4.552-0.402-5.573
			c0.043-0.265,0.084-0.481,0.081-0.616c-0.001-0.076-0.007-0.31-0.607-0.391l-0.439-0.06l-0.101-1.479l6.458-0.235
			c0.128-0.003,10.38-0.062,14.647-0.262l15.778,1.433c0,0,1.723-0.081,3.389,1.511c0.775,0.741,0.777,4.297,0.777,4.297
			l-0.777-0.19c0,0-0.201-3.737-2.343-4.234c-3.31-0.768-16.164-0.279-16.164-0.279l-0.61-0.042c-0.205,0.01-0.458,0.093-0.58,0.438
			c-0.024,0.077-0.008,0.351,0.005,0.55c0.088,1.367,1.516,4.976-4.022,5.687C218.944,42.185,215.987,42.215,215.688,42.229z
			 M211.879,33.748c0.154-0.007,4.585,0.231,2.399,0.268c-2.452,0.042-1.477,2.942-1.201,3.895c0.517,1.787,0.28,3.841,4.756,3.506
			c5.292-0.396,4.475-3.59,4.391-4.896c-0.024-0.375-0.075-1.425-0.103-1.688c-0.114-1.079-1.287-1.001-1.287-1.001
			c-4.545,0.193-11.521,0.259-11.62,0.261l-0.13-0.009c-0.575,0.011-4.333,0.375-4.299,1.468c0.015,0.461-0.358,4.812,0.27,5.425
			c0.737,0.72,3.785,0.411,4.038,0.399c1.069-0.05,1.685-3.829,1.739-3.974c0.19-0.502,0.793-3.381-0.053-3.329
			C209.105,34.175,211.792,33.752,211.879,33.748z"/>
	</g>
	<path fill="none" stroke="#29ABE2" stroke-width="1.5" stroke-linecap="round" stroke-miterlimit="10" d="M237.083,31.417
		c0,0,3.006,26.563-1.521,31.896S222,73.063,219.5,72.563"/>
	<path fill="none" stroke="#29ABE2" stroke-width="1.5" stroke-linecap="round" stroke-miterlimit="10" d="M243.667,42.333
		c0,9.462-3.7,14.52-6.424,15.959"/>
	<path fill="#B3B3B3" d="M197.167,31c2.667-3,5.681-4.302,6.407-6.302C204.517,22.097,202,10,214.5,7.167s36.006-6,40.506,9.333
		s4.161,24,4.327,33.5c0.073,4.171-20.009-0.494-20.009-5.833c0-12.5-9.4-12.244-15.733-10.411
		c-5.318,1.54-9.332-1.782-16.091-1.256S194.241,34.291,197.167,31z"/>
	<path fill="#999999" d="M238.651,60.061c-0.128,0.477-0.625,0.759-1.11,0.628l-1.757-0.471c-0.485-0.13-0.774-0.623-0.646-1.1
		l0.696-2.593c0.128-0.477,0.625-0.758,1.11-0.628l1.756,0.472c0.485,0.13,0.774,0.623,0.646,1.1L238.651,60.061z"/>
	<path fill="#FF7BAC" d="M209.917,58.049c2.141-0.671,5.019-0.791,7.47-0.324s0.876,1.518-0.476,2.747
		c-0.879,0.8-5.356,0.715-5.964,0.034C209.305,58.666,209.235,58.262,209.917,58.049z"/>
	<ellipse fill="#DDAF90" cx="215.024" cy="50.188" rx="1.664" ry="0.438"/>
	<ellipse fill="#DDAF90" cx="211.024" cy="50.188" rx="1.664" ry="0.438"/>
</g>
</svg>
