<?xml version="1.0" encoding="utf-8"?>
<!-- Generator: Adobe Illustrator 16.0.0, SVG Export Plug-In . SVG Version: 6.00 Build 0)  -->
<!DOCTYPE svg PUBLIC "-//W3C//DTD SVG 1.1//EN" "http://www.w3.org/Graphics/SVG/1.1/DTD/svg11.dtd">
<svg version="1.1" id="Layer_1" xmlns="http://www.w3.org/2000/svg" xmlns:xlink="http://www.w3.org/1999/xlink" x="0px" y="0px"
	 width="502px" height="448px" viewBox="0 0 502 448" enable-background="new 0 0 502 448" xml:space="preserve">
<g id="Chain">
	<g>
		<path fill="#B3B3B3" d="M311,334.186c0,0.397-0.447,0.814-1,0.814h-17c-0.552,0-1-0.417-1-0.814l0.656-2.123
			c0-0.397,0.792-1.063,1.344-1.063h15c0.553,0,1.363,0.727,1.363,1.125L311,334.186z"/>
		<path fill="#CCCCCC" d="M311,337.893c0,0.611-0.447,1.107-1,1.107h-17c-0.552,0-1-0.496-1-1.107v-3.324
			c0-0.612,0.448-1.567,1-1.567h17c0.553,0,1,0.955,1,1.567V337.893z"/>
		<circle fill="#B3B3B3" cx="301.5" cy="336" r="2.291"/>
		<path fill="#E6E6E6" d="M273.258,362.693c-2.416-0.112-7.068,3.031-3.125,8.228c2.633,3.47,7.867,0.472,8.241-1.345
			c0.522-2.539-1.438-3.161,4.703-9.24c7.89-7.811,14.389-17.227,16.702-18.582c2.314-1.357,6.304-6.002,2.529-7.629
			c-3.771-1.626-2.98,2.977-5.123,5.105C295.045,341.359,278.447,362.936,273.258,362.693z"/>
	</g>
	<path fill="none" stroke="#999999" stroke-width="2" stroke-miterlimit="10" d="M254.667,377.667c0,0,8.81,19.284,35.833,8.062
		c51.021-21.188,104.846-12.211,102.104-38.401C390.417,326.428,366.25,346,273.167,346
		C248.871,346,249.134,372.339,254.667,377.667z"/>
</g>
<g id="FrontWheel">
	<g>
		<g>
			<path fill="#EAD1B7" d="M118,274c41.421,0,75,33.578,75,75s-33.579,75-75,75s-75-33.578-75-75S76.579,274,118,274 M118,266
				c-45.766,0-83,37.232-83,83s37.233,83,83,83s83-37.232,83-83S163.766,266,118,266L118,266z"/>
		</g>
	</g>
	<g>
		<path fill="#B3B3B3" d="M118,277.088c39.716,0,71.912,32.196,71.912,71.912c0,39.717-32.196,71.912-71.912,71.912
			c-39.715,0-71.911-32.195-71.911-71.912C46.088,309.284,78.284,277.088,118,277.088 M118,273.088
			c-41.857,0-75.911,34.055-75.911,75.912S76.142,424.912,118,424.912s75.912-34.055,75.912-75.912S159.857,273.088,118,273.088
			L118,273.088z"/>
	</g>
	<g>
		<path fill="#333333" d="M118,277.971c39.229,0,71.03,31.801,71.03,71.029s-31.801,71.03-71.03,71.03
			c-39.228,0-71.029-31.802-71.029-71.03S78.771,277.971,118,277.971 M118,275.971c-40.268,0-73.029,32.76-73.029,73.029
			s32.76,73.03,73.029,73.03s73.03-32.763,73.03-73.03S158.268,275.971,118,275.971L118,275.971z"/>
	</g>
	<g>
		<g>
			<path fill="#DCC3A5" d="M118,274c41.421,0,75,33.578,75,75s-33.579,75-75,75s-75-33.578-75-75S76.579,274,118,274 M118,272
				c-42.458,0-77,34.542-77,77s34.542,77,77,77s77-34.542,77-77S160.458,272,118,272L118,272z"/>
		</g>
	</g>
	<g>
		<line fill="none" stroke="#333333" stroke-miterlimit="10" x1="45" y1="349.5" x2="191" y2="349.5"/>
		<line fill="none" stroke="#333333" stroke-miterlimit="10" x1="45" y1="349.5" x2="191" y2="349.5"/>
		<line fill="none" stroke="#333333" stroke-miterlimit="10" x1="54.959" y1="385.729" x2="181.042" y2="312.934"/>
		<line fill="none" stroke="#333333" stroke-miterlimit="10" x1="54.959" y1="385.729" x2="181.042" y2="312.934"/>
		<line fill="none" stroke="#333333" stroke-miterlimit="10" x1="81.604" y1="412.372" x2="154.398" y2="286.289"/>
		<line fill="none" stroke="#333333" stroke-miterlimit="10" x1="81.604" y1="412.372" x2="154.398" y2="286.289"/>
		<line fill="none" stroke="#333333" stroke-miterlimit="10" x1="118.5" y1="422" x2="118.5" y2="276"/>
		<line fill="none" stroke="#333333" stroke-miterlimit="10" x1="118.5" y1="422" x2="118.5" y2="276"/>
		<line fill="none" stroke="#333333" stroke-miterlimit="10" x1="154.519" y1="411.921" x2="81.725" y2="285.837"/>
		<line fill="none" stroke="#333333" stroke-miterlimit="10" x1="154.519" y1="411.921" x2="81.725" y2="285.837"/>
		<line fill="none" stroke="#333333" stroke-miterlimit="10" x1="180.921" y1="385.275" x2="54.839" y2="312.48"/>
	</g>
	<g>
		<line fill="none" stroke="#808080" stroke-miterlimit="10" x1="47.772" y1="368.16" x2="188.399" y2="330.479"/>
		<line fill="none" stroke="#808080" stroke-miterlimit="10" x1="47.772" y1="368.16" x2="188.399" y2="330.479"/>
		<line fill="none" stroke="#808080" stroke-miterlimit="10" x1="66.614" y1="400.792" x2="169.559" y2="297.846"/>
		<line fill="none" stroke="#808080" stroke-miterlimit="10" x1="66.614" y1="400.792" x2="169.559" y2="297.846"/>
		<line fill="none" stroke="#808080" stroke-miterlimit="10" x1="99.247" y1="419.632" x2="136.927" y2="279.005"/>
		<line fill="none" stroke="#808080" stroke-miterlimit="10" x1="99.247" y1="419.632" x2="136.927" y2="279.005"/>
		<line fill="none" stroke="#808080" stroke-miterlimit="10" x1="137.16" y1="419.229" x2="99.48" y2="278.602"/>
		<line fill="none" stroke="#808080" stroke-miterlimit="10" x1="137.16" y1="419.229" x2="99.48" y2="278.602"/>
		<line fill="none" stroke="#808080" stroke-miterlimit="10" x1="169.559" y1="400.326" x2="66.613" y2="297.378"/>
		<line fill="none" stroke="#808080" stroke-miterlimit="10" x1="169.559" y1="400.326" x2="66.613" y2="297.378"/>
		<line fill="none" stroke="#808080" stroke-miterlimit="10" x1="188.166" y1="367.754" x2="47.539" y2="330.073"/>
	</g>
</g>
<g id="BackLeg">
	<g>
		<path fill="#4D4D4D" d="M311.024,293.419c0,0,17.2,14.649,11.294,18.442c-5.91,3.793-49.205,29.188-52.467,26.281
			c-3.264-2.906-12.984-11.451-4.472-17.265s23.278-12.953,23.817-17.151C289.617,300.473,309.173,291.877,311.024,293.419z"/>
		<path fill="#8C6239" d="M324.834,309.295c1.615,6.834-49.695,34.303-52.959,31.396c-0.493-0.438-4.877-2.658-2.574-3.414
			c8.844-2.899,22.6-8.786,34.674-16.219c8.76-5.393,17.773-15.931,19.137-14.519C324.731,308.223,324.594,308.287,324.834,309.295z
			"/>
	</g>
	<path fill="#1E71AF" d="M337.604,155.333c0,0,12.729,30.707,3.063,38.02S276.25,212.66,271.25,233.25s27.619,43.416,36.944,55.5
		c6.679,8.654,5.125,7.688-5.277,14.333c-11.906,7.606-20.594,13.021-33.813-2.002c-15.582-17.711-30.162-30.076-47.159-61.377
		C208.75,215.403,294.5,180,296.791,171.667C299.182,162.973,334.045,145.089,337.604,155.333z"/>
</g>
<g id="BackWheel">
	<g>
		<line fill="none" stroke="#333333" stroke-miterlimit="10" x1="308" y1="349.5" x2="454" y2="349.5"/>
		<line fill="none" stroke="#333333" stroke-miterlimit="10" x1="308" y1="349.5" x2="454" y2="349.5"/>
		<line fill="none" stroke="#333333" stroke-miterlimit="10" x1="317.959" y1="385.729" x2="444.042" y2="312.934"/>
		<line fill="none" stroke="#333333" stroke-miterlimit="10" x1="317.959" y1="385.729" x2="444.042" y2="312.934"/>
		<line fill="none" stroke="#333333" stroke-miterlimit="10" x1="344.604" y1="412.372" x2="417.398" y2="286.289"/>
		<line fill="none" stroke="#333333" stroke-miterlimit="10" x1="344.604" y1="412.372" x2="417.398" y2="286.289"/>
		<line fill="none" stroke="#333333" stroke-miterlimit="10" x1="381.5" y1="422" x2="381.5" y2="276"/>
		<line fill="none" stroke="#333333" stroke-miterlimit="10" x1="381.5" y1="422" x2="381.5" y2="276"/>
		<line fill="none" stroke="#333333" stroke-miterlimit="10" x1="417.519" y1="411.921" x2="344.725" y2="285.837"/>
		<line fill="none" stroke="#333333" stroke-miterlimit="10" x1="417.519" y1="411.921" x2="344.725" y2="285.837"/>
		<line fill="none" stroke="#333333" stroke-miterlimit="10" x1="443.921" y1="385.275" x2="317.839" y2="312.48"/>
	</g>
	<g>
		<line fill="none" stroke="#808080" stroke-miterlimit="10" x1="310.772" y1="368.16" x2="451.399" y2="330.479"/>
		<line fill="none" stroke="#808080" stroke-miterlimit="10" x1="310.772" y1="368.16" x2="451.399" y2="330.479"/>
		<line fill="none" stroke="#808080" stroke-miterlimit="10" x1="329.613" y1="400.792" x2="432.559" y2="297.846"/>
		<line fill="none" stroke="#808080" stroke-miterlimit="10" x1="329.613" y1="400.792" x2="432.559" y2="297.846"/>
		<line fill="none" stroke="#808080" stroke-miterlimit="10" x1="362.246" y1="419.632" x2="399.928" y2="279.005"/>
		<line fill="none" stroke="#808080" stroke-miterlimit="10" x1="362.246" y1="419.632" x2="399.928" y2="279.005"/>
		<line fill="none" stroke="#808080" stroke-miterlimit="10" x1="400.16" y1="419.229" x2="362.48" y2="278.602"/>
		<line fill="none" stroke="#808080" stroke-miterlimit="10" x1="400.16" y1="419.229" x2="362.48" y2="278.602"/>
		<line fill="none" stroke="#808080" stroke-miterlimit="10" x1="432.559" y1="400.326" x2="329.613" y2="297.378"/>
		<line fill="none" stroke="#808080" stroke-miterlimit="10" x1="432.559" y1="400.326" x2="329.613" y2="297.378"/>
		<line fill="none" stroke="#808080" stroke-miterlimit="10" x1="451.166" y1="367.754" x2="310.539" y2="330.073"/>
	</g>
	<g>
		<g>
			<path fill="#EAD1B7" d="M381,274c41.421,0,75,33.578,75,75s-33.579,75-75,75c-41.422,0-75-33.578-75-75S339.578,274,381,274
				 M381,266c-45.767,0-83,37.232-83,83s37.233,83,83,83s83-37.232,83-83S426.767,266,381,266L381,266z"/>
		</g>
	</g>
	<g>
		<path fill="#B3B3B3" d="M381,277.088c39.715,0,71.912,32.196,71.912,71.912c0,39.717-32.197,71.912-71.912,71.912
			c-39.716,0-71.912-32.195-71.912-71.912C309.088,309.284,341.284,277.088,381,277.088 M381,273.088
			c-41.858,0-75.912,34.055-75.912,75.912s34.054,75.912,75.912,75.912s75.912-34.055,75.912-75.912S422.858,273.088,381,273.088
			L381,273.088z"/>
	</g>
	<g>
		<path fill="#333333" d="M381,277.971c39.229,0,71.029,31.801,71.029,71.029S420.228,420.03,381,420.03
			s-71.029-31.802-71.029-71.03S341.771,277.971,381,277.971 M381,275.971c-40.269,0-73.029,32.76-73.029,73.029
			s32.762,73.03,73.029,73.03s73.029-32.763,73.029-73.03S421.269,275.971,381,275.971L381,275.971z"/>
	</g>
	<g>
		<g>
			<path fill="#DCC3A5" d="M381,274c41.421,0,75,33.578,75,75s-33.579,75-75,75c-41.422,0-75-33.578-75-75S339.578,274,381,274
				 M381,272c-42.458,0-77,34.542-77,77s34.542,77,77,77s77-34.542,77-77S423.458,272,381,272L381,272z"/>
		</g>
	</g>
	<g>
		<path fill="#CCCCCC" d="M381.725,361h-1.449l-0.973-1.559l-1.488,1.576l-1.38-0.379l-0.357-2.008l-1.862,0.926l-1.173-0.843
			l0.289-2.048l-2.053,0.291l-0.853-1.172l0.909-1.861l-2.041-0.357l-0.448-1.379l1.713-1.49L369,349.725v-1.449l1.559-0.973
			l-1.575-1.49l0.379-1.379l2.008-0.357l-0.927-1.862l0.843-1.173l2.049,0.29l-0.291-2.054l1.172-0.853l1.861,0.91l0.357-2.042
			l1.38-0.447l1.489,1.713l0.973-1.559h1.448l0.974,1.559l1.489-1.578l1.38,0.381l0.357,2.008l1.862-0.926l1.173,0.843l-0.289,2.049
			l2.053-0.292l0.854,1.172l-0.91,1.861l2.041,0.357l0.448,1.379l-1.714,1.49l1.559,0.973v1.449l-1.559,0.974l1.576,1.489
			l-0.379,1.379l-2.008,0.358l0.927,1.862l-0.844,1.173l-2.048-0.289l0.291,2.052l-1.172,0.854l-1.861-0.91l-0.357,2.042
			l-1.38,0.448l-1.489-1.715L381.725,361z"/>
	</g>
</g>
<g id="Frame">
	<g>
		<path fill="#CCCCCC" d="M274.84,389.604l1.77-0.131l0.551-1.244l0.895,1.024l1.727-0.394l0.359-1.313l1.036,0.881l1.65-0.648
			l0.161-1.35l1.154,0.717l1.535-0.886l-0.041-1.358l1.246,0.535l1.387-1.104l-0.246-1.338l1.316,0.345l1.207-1.3l-0.441-1.285
			l1.353,0.146l0.998-1.465l-0.627-1.207l1.356-0.059l0.771-1.598l-0.802-1.098l1.334-0.262l0.521-1.693l-0.958-0.969l1.277-0.455
			l0.254-1.754l-0.925-0.813l1.343-0.643v-1.772l-1.343-0.644l1.033-0.813l-0.309-1.753l-1.304-0.457l0.942-0.968l-0.528-1.694
			l-1.335-0.259l0.799-1.1l-0.77-1.597l-1.358-0.06l0.627-1.207l-0.998-1.465l-1.353,0.146l0.441-1.285l-1.207-1.3l-1.316,0.344
			l0.246-1.338l-1.387-1.104l-1.246,0.535l0.041-1.358l-1.535-0.888l-1.154,0.718l-0.161-1.351l-1.649-0.646l-1.037,0.881
			l-0.359-1.313l-1.727-0.395l-0.895,1.023l-0.551-1.242l-1.77-0.133l-0.729,1.146l-0.73-1.146l-1.768,0.133l-0.553,1.242
			l-0.893-1.023l-1.729,0.395l-0.358,1.313l-1.037-0.881l-1.649,0.646l-0.16,1.351l-1.154-0.718l-1.535,0.888l0.041,1.358
			l-1.248-0.535l-1.387,1.104l0.247,1.338l-1.316-0.344l-1.207,1.3l0.442,1.285l-1.354-0.146l-0.998,1.465l0.627,1.207l-1.358,0.06
			l-0.771,1.597l0.799,1.1l-1.336,0.259l-0.529,1.694l0.947,0.968l-1.303,0.457l-0.304,1.753l0.714,0.813L252,367.114v1.772
			l1.255,0.643l-0.778,0.813l0.338,1.754l1.314,0.455l-0.936,0.969l0.527,1.693l1.344,0.262l-0.801,1.098l0.772,1.598l1.358,0.059
			l-0.627,1.207l0.998,1.465l1.354-0.146l-0.442,1.285l1.207,1.3l1.316-0.345l-0.247,1.338l1.387,1.104l1.248-0.535l-0.041,1.358
			l1.535,0.886l1.154-0.717l0.16,1.35l1.649,0.648l1.037-0.881l0.358,1.313l1.729,0.394l0.893-1.024l0.553,1.244l1.768,0.131
			l0.73-1.146L274.84,389.604z"/>
	</g>
	<polygon fill="#141414" points="276,363.375 377.754,349 378.499,352 276,369 	"/>
	<path fill="#CCCCCC" d="M310.875,236.5c0,0,2.781-9.344,4.358-14.125c0.513-1.554,2.015-3.604,4.701-3.917
		c1.526-0.178,2.939-4.625,2.753-6.177l5.938,0.844c0,0-0.381,2.885-0.503,4.38c-0.156,1.907-0.997,6.808-5.31,7.12
		c-1.317,0.096-2.688,1.563-2.688,1.563l-3.75,12.156L310.875,236.5z"/>
	<g>
		<path fill="#1A1A1A" d="M191.254,299.74c20,27.371,14.838,57.955,14.309,63.572c-0.313,3.313-5.785,4.856-6.063-3.063
			c-0.25-7.125,2.158-16.509-1.25-31.5c-3.036-13.355-19.167-41.667-41.035-52.75c-18.232-9.24-40.798-9.833-45.173-9.417
			c-1.859,0.177-4.247-1.567-4.678-2.265c-1.604-2.592,3.202-2.189,10.517-2.193C158.333,262.104,179.465,283.605,191.254,299.74z"
			/>
	</g>
	<g>
		<path fill="#1A1A1A" d="M466.73,328.829c-1.667-5.392-8.638-35.614-37.609-53.215c-8.187-4.974-18.833-10.253-31.809-12.7
			c-0.312-0.126-0.63-0.214-0.943-0.253c-5.603-0.685-36.032-6.681-63.94,12.563c-16.451,11.344-38.512,34.524-39.512,69.858
			c-0.207,7.312,0.174,12.563,2.81,11.032c0.709-0.414,2.518-2.751,2.393-4.615c-0.297-4.385,1.234-23.859,10.97-41.834
			c9.726-17.951,29.953-32.654,44.65-38.26c4.469-1.387,9.986-2.793,16-3.732c10.86-1.438,19.018-0.938,25.794,0.067
			c22.206,4.551,44.003,21.864,51.182,31.977c8.9,12.536,10.278,22.125,13.243,28.609
			C463.252,335.533,467.713,332.007,466.73,328.829z"/>
	</g>
	<polygon fill="#141414" points="312.153,247.396 379.875,346 377,348.376 311.083,252.75 	"/>
	<path fill="#CCCCCC" d="M163.313,197.375l17.75,0.375c0,0,5-0.438,3.5,3.688S179,217.125,179,217.125l-4.5-1.438l3-8.75
		c0,0,1.188-2.938-3.125-2.938S166,204,166,204s-1.664-0.25-4.938,2.313c-3.071,2.403-8-0.938-8-4.063
		C153.063,196.75,156.75,197.375,163.313,197.375z"/>
	<polygon fill="#141414" points="176.238,227.855 308.037,244.088 309.158,240.495 315.233,242.253 313.01,249.382 275.695,369.936 
		270.495,364.473 306.27,249.756 174.313,234.025 168.741,250.073 274.792,359.833 276,370.25 166.416,256.768 164.88,261.189 
		158.58,260.081 172.543,218.743 178.595,220.587 	"/>
	<path fill="#141414" d="M162.238,268.855l-1.924,6.17l-5.573,16.047l-2.325,6.695c0,0-7.374,15.383-10.332,20.231
		c-4.78,7.835-21.435,29.804-21.435,29.804l-1.811-1.285c0,0,14.29-22.295,18.496-30.685c2.85-5.685,10.645-24.813,10.645-24.813
		l10.565-31.276l6.052,1.844L162.238,268.855z"/>
	<path fill="#B3B3B3" d="M165.55,262.631c-0.184,0.521-0.689,0.818-1.129,0.662l-6.379-2.244c-0.44-0.156-0.649-0.703-0.465-1.224
		l0.332-0.943c0.183-0.521,0.689-0.817,1.129-0.663l6.379,2.244c0.44,0.156,0.648,0.704,0.465,1.225L165.55,262.631z"/>
	<path fill="#B3B3B3" d="M179.973,221.624c-0.21,0.598-0.771,0.946-1.253,0.775l-6.977-2.455c-0.481-0.17-0.702-0.792-0.491-1.389
		l0.381-1.082c0.21-0.598,0.772-0.945,1.253-0.775l6.978,2.455c0.482,0.171,0.702,0.792,0.491,1.39L179.973,221.624z"/>
	<path fill="#B3B3B3" d="M179.709,219.179c-0.21,0.598-0.678,0.979-1.045,0.848l-5.31-1.868c-0.366-0.129-0.493-0.718-0.283-1.315
		l0.381-1.082c0.21-0.598,0.679-0.979,1.044-0.849l5.31,1.867c0.367,0.13,0.493,0.719,0.283,1.317L179.709,219.179z"/>
	<path fill="#B3B3B3" d="M316.396,242.234c-0.185,0.605-0.697,0.988-1.146,0.852l-6.511-1.966c-0.448-0.136-0.665-0.738-0.48-1.345
		l0.331-1.098c0.185-0.607,0.696-0.988,1.146-0.853l6.511,1.966c0.449,0.137,0.665,0.738,0.48,1.346L316.396,242.234z"/>
	<path fill="#B3B3B3" d="M316.359,239.904c-0.185,0.607-0.633,1.009-1.002,0.896l-5.361-1.618c-0.371-0.113-0.522-0.695-0.339-1.301
		l0.332-1.098c0.184-0.607,0.632-1.008,1.002-0.896l5.362,1.619c0.369,0.113,0.521,0.695,0.337,1.303L316.359,239.904z"/>
	<path fill="#E6E6E6" d="M167.063,191.125c0,0-16.064-0.588-13.377,3.35c1.698,2.488,7.589,4.715,6.981,7.442
		c-0.729,3.271-4.615,4.158-6.271,1.363c-0.941-1.588-2.951-3.173-4.146-4.655c-4.688-5.813-5.188-5.625-2.167-9.958
		c2.764-3.965,19.417-2.979,19.417-2.979L167.063,191.125z"/>
	<path fill="#666666" d="M168.369,181.312c1.006-0.182,2.914,0.423,3.43,2.239c0.332,1.164,0.756,7.722-0.03,9.876
		c-0.712,1.951-6.913,2.41-7.136-4.067C164.409,182.884,166.564,181.638,168.369,181.312z"/>
	<path fill="#808080" d="M174.563,183.669c-0.625-0.735-3-1.041-4.375-0.857s-2.063,2.435-2,5.29s1.889,5.928,3.217,5.218
		c1.328-0.71,2.689-0.511,3.439-1.797S175.188,184.403,174.563,183.669z"/>
	<path fill="#8C6239" d="M196,191.014c0,0.544-0.448,0.986-1,0.986h-21c-0.552,0-1.542-1.576-1.542-4c0-2.076,0.989-4,1.542-4h21
		c0.552,0,1,0.549,1,1.094V191.014z"/>
	<path fill="#666666" d="M196.938,188c0,2.123-0.743,4-1.813,4s-2.063-1.877-2.063-4s1.034-4,2.104-4S196.938,185.877,196.938,188z"
		/>
	<path fill="#4D4D4D" d="M196.469,188c0,1.535-0.419,2.892-1.023,2.892s-1.164-1.357-1.164-2.892s0.583-2.892,1.188-2.892
		C196.073,185.108,196.469,186.465,196.469,188z"/>
	<circle fill="#BAB4B6" cx="381" cy="349" r="4.729"/>
	<polygon fill="#CCCCCC" points="379.346,352 377.691,349 379.346,346 382.654,346 384.309,349 382.654,352 	"/>
	<circle fill="#808080" cx="381.086" cy="349.184" r="1.857"/>
	<path fill="#8C6239" d="M307.083,200.063c6.527,0.856,16.751,1.937,23.501,1.104s18.666-4.316,21.333,0.217
		c2.667,4.533-5.417,7.866-11.5,11.783s-11.667,2.193-19.917-1.362c-8.25-3.555-8.79-4.388-15.938-3.805
		c-7.146,0.583-14.396,2.25-11.979-2.5S302,199.396,307.083,200.063z"/>
	<g>
		<path fill="#1A1A1A" d="M273.619,347.521c3.518,0,8.438,0.854,12.131,3.354l88.375-9.25l-3.5-4.938
			c-8.309,0.431-90.622,6.811-97.006,6.811c-13.396,0-24.255,10.859-24.255,24.256c0,5.089,2.704,9.212,4.886,13.247l2.977-1.948
			c-1.793-3.021-3.84-7.533-3.84-11.299C253.387,356.58,262.443,347.521,273.619,347.521z"/>
	</g>
	<circle fill="#BAB4B6" cx="118" cy="349" r="4.729"/>
	<polygon fill="#CCCCCC" points="116.346,352 114.691,349 116.346,346 119.654,346 121.309,349 119.654,352 	"/>
	<circle fill="#808080" cx="118.086" cy="349.184" r="1.857"/>
</g>
<g id="Pedals">
	<g>
		<path fill="#E6E6E6" d="M268.4,367.236c-0.039-2.418,3.248-6.971,8.32-2.868c3.387,2.739,0.229,7.878-1.599,8.194
			c-2.554,0.444-3.115-1.535-9.381,4.416c-8.048,7.646-17.66,13.852-19.088,16.123c-1.428,2.271-6.192,6.113-7.702,2.293
			c-1.51-3.82,3.066-2.89,5.26-4.963C246.404,388.357,268.48,372.432,268.4,367.236z"/>
		<path fill="#B3B3B3" d="M251,392.186c0,0.397-0.448,0.814-1,0.814h-17c-0.552,0-1-0.417-1-0.814l0.656-2.123
			c0-0.397,0.792-1.063,1.344-1.063h15c0.552,0,1.364,0.727,1.364,1.125L251,392.186z"/>
		<path fill="#CCCCCC" d="M251,395.893c0,0.611-0.448,1.107-1,1.107h-17c-0.552,0-1-0.496-1-1.107v-3.324
			c0-0.612,0.448-1.567,1-1.567h17c0.552,0,1,0.955,1,1.567V395.893z"/>
		<circle fill="#B3B3B3" cx="241.5" cy="394" r="2.292"/>
	</g>
</g>
<g id="Max">
	<g>
		<path fill="#4D4D4D" d="M272.253,360.868c0,0,10.634,19.935,3.747,21.299c-6.889,1.363-56.478,9.119-58.449,5.22
			s-7.882-15.414,2.168-17.701c10.051-2.288,26.405-3.519,28.447-7.227C249.75,359.583,271.096,358.755,272.253,360.868z"/>
		<path fill="#8C6239" d="M279.281,380.701c-1.002,6.95-58.811,13.698-60.781,9.799c-0.297-0.589-3.563-4.261-1.144-4.119
			c9.29,0.543,24.248,0.108,38.206-2.381c10.125-1.806,22.375-8.306,23.125-6.493C279.58,379.665,279.428,379.676,279.281,380.701z"
			/>
		<path fill="none" stroke="#333333" stroke-width="2" stroke-miterlimit="10" d="M252.227,367.052
			c1.378,2.326-3.253,8.456-4.632,6.13c-1.378-2.326,1.104-9.032,2.313-9.748C251.115,362.718,250.848,364.727,252.227,367.052z"/>
		<path fill="none" stroke="#333333" stroke-width="2" stroke-linecap="round" stroke-miterlimit="10" d="M241.5,366.013
			c0,0,3.53,2.841,3.807,5.664"/>
		<path fill="none" stroke="#333333" stroke-width="2" stroke-linecap="round" stroke-miterlimit="10" d="M245.5,364.013
			c0,0,3.53,2.841,3.807,5.664"/>
		<path fill="none" stroke="#333333" stroke-width="2" stroke-linecap="round" stroke-miterlimit="10" d="M236.5,367.013
			c0,0,3.53,2.841,3.807,5.664"/>
		<path fill="none" stroke="#333333" stroke-width="2" stroke-linecap="round" stroke-miterlimit="10" d="M231.5,368.013
			c0,0,3.53,2.841,3.807,5.664"/>
	</g>
	<path fill="#ECC19C" d="M234.5,81c0,0-5.5-6.167-6.833-11s14.667-10.5,18.5-9.667s7.487,8.606,8.833,10.292
		S234.667,79.667,234.5,81z"/>
	<path fill="#EFC5A5" d="M224.417,10.961c-3.424,0.396-9.962,5.286-11.083,9.269c-1.118,3.972-4.604,5.875-5.918,9.682
		c-1.315,3.807,3.724,7.282-1.407,13.323c-4.184,4.927-2.317,7.779,1.158,7.283c5.403-0.772,1.723,3.176,1.16,4.831
		c-0.564,1.656-0.765,2.424,2.465,2.32c1.377-0.044,0.523,0.723-0.792,1.054c-1.314,0.331-0.987,2.388,0.328,4.043
		c1.315,1.655-1.878,8.771,4.133,9.103c6.011,0.332,37.414-1.423,37.889-16.716c0.506-16.251,6.631-22.67-1.634-30.451
		C242.45,16.919,243.014,8.809,224.417,10.961z"/>
	<path fill="#10669B" d="M342.25,154.25c0,0,18.75,31,5.417,43.104c-8.976,8.147-58.333,48.056-63.333,68.646
		s-8.627,74.132-8,89.383s-7.417,9.297-21.542,9.631s-19.164,7.484-18.498-12.516s0.706-53.83,5.206-89.163
		c5.164-40.545,60-79.335,62.291-87.668C306.182,166.973,338.69,144.005,342.25,154.25z"/>
	<path fill="#603813" d="M253.563,46.438c0,0,2.25,6.875,0.375,7.938s-4.375,4-6.25,0.438s-0.875-5.375-3.563-8.375
		s-6.25-10.813-8.813-11s-3.903,0.255-4.105,2.938s-3.056,2.376-4.306,1.792s-1.54-7.917-1.54-9.917l11.138-0.938L253.563,46.438z"
		/>
	<path fill="#808080" d="M256.833,67.667c12.667,1,32.333,11.75,43.667,24.083s62.707,77.417,50.75,78.75s-43.558,23.167-55,8.5
		c-11.441-14.667-53.675-57.667-61.675-67.667c-5.089-6.361-10.863-29.595,0.425-34C241.833,74.667,252.225,67.303,256.833,67.667z"
		/>
	<path fill="#EFC5A5" d="M195.179,179.292c-2.859-2.435-3.379-7.659-4.554-7.479c-6.517,0.997-13.323,7.585-14.688,12.188
		c-0.457,1.54,0.604,5.848,1.08,7.438c0.399,1.334,4.163,2.354,4.435,0.612c1.1,0.981,3.772,1.459,4,0
		c1.278,1.141,4.686,1.606,3.9-0.868c1.492,1.064,4.379,1.432,3.399-1.347C191.491,186.261,195.179,179.292,195.179,179.292z"/>
	<g>
		<path fill="#FFFFFF" d="M211.438,35.5c-0.215,0.221,0,1.75,0,1.75s3.91,0.447,5.813,0.25
			C219.063,37.313,215.037,31.792,211.438,35.5z"/>
		<circle fill="#603813" cx="214.156" cy="35.886" r="1.313"/>
		<circle cx="214.156" cy="35.886" r="0.716"/>
	</g>
	<path fill="#999999" d="M243.5,81c7.012-5.329,11.5-14.75,21-7s13.75,22.25,7.25,29.5S254.5,146,245.5,152
		s-23.109,16.192-32.333,21.167c-9.192,4.957-16.377,10.737-20.104,8.115c-3.727-2.622-11.646-2.031-11.396-6.781
		s40.649-31.5,44.899-40.5S237.25,85.75,243.5,81z"/>
	<path fill="none" stroke="#29ABE2" stroke-width="1.5" stroke-linecap="round" stroke-miterlimit="10" d="M231.833,31
		c0,0,1.888,25.334-2.639,30.667C224.667,67,221,73.063,218.5,72.563"/>
	<g>
		<path d="M213.904,41.167c-3.314,0-4.155-1.88-4.518-3.518c-0.045-0.207-0.087-0.373-0.125-0.508
			c-0.007,0.018-0.013,0.034-0.02,0.049c-0.066,0.166-0.132,0.329-0.198,0.465c-0.052,0.108-0.093,0.23-0.137,0.358
			c-0.217,0.634-0.582,1.695-2.284,1.695c-0.29,0,0.383-0.031,0.028-0.092c-0.692-0.118-1.217-0.431-1.561-0.929
			c-0.72-1.046-0.417-2.576-0.216-3.588c0.052-0.263,0.099-0.477,0.102-0.612c0.002-0.076,0.007-0.31-0.543-0.418l-0.403-0.08
			L204,32.509l2.97,0.067C207.089,32.579,216.553,33,220.5,33l14.5,2.17c0,0,1.594,0,3.063,1.668
			c0.684,0.776,0.531,4.329,0.531,4.329l-0.708-0.227c0,0-0.024-3.742-1.979-4.339C232.884,35.679,221,35.566,221,35.566
			l-0.562-0.07c-0.189,0-0.426,0.072-0.554,0.411c-0.026,0.076-0.022,0.35-0.019,0.55c0.021,1.369,0.066,4.218-5.075,4.669
			C214.476,41.154,214.181,41.167,213.904,41.167z M209.438,33.219c0.143,0,4.222,0.445,2.203,0.38
			c-2.265-0.073-1.49,2.87-1.277,3.835c0.4,1.809,1.289,2.964,4.34,2.696c4.214-0.37,4.183-2.348,4.162-3.657
			c-0.006-0.376-0.008-1.427-0.022-1.691c-0.058-1.083-1.145-1.061-1.145-1.061c-4.204-0.021-10.644-0.281-10.735-0.283l-0.12-0.016
			c-0.531-0.016-0.913,0.865-1.031,1.266c-0.131,0.442-0.38,2.736,0.101,3.434c0.187,0.271,0.483,0.438,0.905,0.511
			c0.3,0.051-0.43,0.077-0.196,0.077c0.989,0,1.135-0.428,1.338-1.02c0.058-0.168,0.114-0.329,0.183-0.47
			c0.057-0.117,0.112-0.257,0.169-0.4c0.197-0.492,0.878-3.34,0.095-3.328C206.859,33.516,209.358,33.219,209.438,33.219z"/>
	</g>
	<path fill="none" stroke="#29ABE2" stroke-width="1.5" stroke-linecap="round" stroke-miterlimit="10" d="M243.667,42.333
		c0,9.462-9.736,12.633-12.46,14.073"/>
	<path fill="#B3B3B3" d="M197.167,31c2.667-3,5.681-4.302,6.407-6.302C204.517,22.097,202,10,214.5,7.167s36.006-6,40.506,9.333
		s4.161,24,4.327,33.5c0.073,4.171-20.009-0.494-20.009-5.833c0-12.5-9.4-12.244-15.733-10.411
		c-5.318,1.54-9.332-1.782-16.091-1.256S194.241,34.291,197.167,31z"/>
	<path fill="#999999" d="M232.651,58.061c-0.128,0.477-0.625,0.759-1.11,0.628l-1.757-0.471c-0.485-0.13-0.774-0.623-0.646-1.1
		l0.696-2.593c0.128-0.477,0.625-0.758,1.11-0.628l1.756,0.472c0.485,0.13,0.774,0.623,0.646,1.1L232.651,58.061z"/>
</g>
</svg>
